<svg enable-background="new 0 0 670 242" viewBox="0 0 670 242" xmlns="http://www.w3.org/2000/svg"><path d="m13.416 150.723c-1.85 0-3.35-1.5-3.35-3.35s1.5-3.35 3.35-3.35 3.35 1.5 3.35 3.35-1.5 3.35-3.35 3.35zm0 3.388-6.699-6.699-6.699 6.699 6.699 6.699zm13.399 0-6.699-6.699-6.699 6.699 6.699 6.699zm-13.399 13.399-6.699-6.7-6.699 6.7 6.699 6.699zm13.399 0-6.699-6.7-6.699 6.7 6.699 6.699zm-13.399 13.399-6.699-6.699-6.699 6.699 6.699 6.699zm13.399 0-6.699-6.699-6.699 6.699 6.699 6.699zm-13.399 13.399-6.699-6.699-6.699 6.699 6.699 6.699zm13.399 0-6.699-6.699-6.699 6.699 6.699 6.699zm-13.399 13.399-6.699-6.699-6.699 6.699 6.699 6.699zm13.399 0-6.699-6.699-6.699 6.699 6.699 6.699zm-13.399 13.399-6.699-6.699-6.699 6.699 6.699 6.7zm13.399 0-6.699-6.699-6.699 6.699 6.699 6.7zm-13.399 13.399-6.699-6.699-6.699 6.699 6.699 6.699zm13.399 0-6.699-6.699-6.699 6.699 6.699 6.699zm60.295-6.699 6.699-6.699-6.699-6.699-6.699 6.699zm0 13.399 6.699-6.699-6.699-6.699-6.699 6.699zm-13.399-13.399 6.699-6.699-6.699-6.699-6.699 6.699zm0 13.399 6.699-6.699-6.699-6.699-6.699 6.699zm-13.399-13.399 6.699-6.699-6.699-6.699-6.699 6.699zm0 13.399 6.699-6.699-6.699-6.699-6.699 6.699zm-13.399-13.399 6.699-6.699-6.699-6.699-6.699 6.699zm0 13.399 6.699-6.699-6.699-6.699-6.699 6.699zm-13.399-13.399 6.699-6.699-6.699-6.699-6.699 6.699zm0 13.399 6.699-6.699-6.699-6.699-6.699 6.699zm-16.748-80.394c0-1.85-1.5-3.35-3.35-3.35s-3.35 1.5-3.35 3.35 1.5 3.35 3.35 3.35 3.35-1.5 3.35-3.35zm0 13.399c0-1.85-1.5-3.35-3.35-3.35s-3.35 1.5-3.35 3.35 1.5 3.35 3.35 3.35 3.35-1.5 3.35-3.35zm0 13.399c0-1.85-1.5-3.35-3.35-3.35s-3.35 1.5-3.35 3.35 1.5 3.35 3.35 3.35 3.35-1.5 3.35-3.35zm0 13.399c0-1.85-1.5-3.35-3.35-3.35s-3.35 1.5-3.35 3.35 1.5 3.35 3.35 3.35 3.35-1.5 3.35-3.35zm0 13.399c0-1.85-1.5-3.35-3.35-3.35s-3.35 1.5-3.35 3.35 1.5 3.35 3.35 3.35 3.35-1.5 3.35-3.35zm0 13.399c0-1.85-1.5-3.35-3.35-3.35s-3.35 1.5-3.35 3.35 1.5 3.35 3.35 3.35 3.35-1.5 3.35-3.35zm13.399 0c0-1.85-1.5-3.35-3.35-3.35s-3.35 1.5-3.35 3.35 1.5 3.35 3.35 3.35c1.85-.001 3.35-1.5 3.35-3.35zm13.399 0c0-1.85-1.5-3.35-3.35-3.35s-3.35 1.5-3.35 3.35 1.5 3.35 3.35 3.35 3.35-1.5 3.35-3.35zm13.399 0c0-1.85-1.5-3.35-3.35-3.35s-3.35 1.5-3.35 3.35 1.5 3.35 3.35 3.35c1.85-.001 3.35-1.5 3.35-3.35zm13.399 0c0-1.85-1.5-3.35-3.35-3.35s-3.35 1.5-3.35 3.35 1.5 3.35 3.35 3.35c1.85-.001 3.35-1.5 3.35-3.35zm13.399 0c0-1.85-1.5-3.35-3.35-3.35s-3.35 1.5-3.35 3.35 1.5 3.35 3.35 3.35 3.35-1.5 3.35-3.35zm13.399 0c0-1.85-1.5-3.35-3.35-3.35s-3.35 1.5-3.35 3.35 1.5 3.35 3.35 3.35c1.85-.001 3.35-1.5 3.35-3.35zm559.389-73.695-6.699-6.699-6.7 6.699 6.7 6.699zm13.399 0-6.699-6.699-6.7 6.699 6.7 6.699zm-10.049-6.489c0-1.85-1.5-3.35-3.35-3.35s-3.35 1.5-3.35 3.35 1.5 3.35 3.35 3.35 3.35-1.5 3.35-3.35zm-76.992 80.184-6.699 6.699 6.699 6.699 6.7-6.699zm0-13.399-6.699 6.699 6.699 6.699 6.7-6.699zm13.399 13.399-6.699 6.699 6.699 6.699 6.7-6.699zm0-13.399-6.699 6.699 6.699 6.699 6.7-6.699zm13.399 13.399-6.699 6.699 6.699 6.699 6.7-6.699zm0-13.399-6.699 6.699 6.699 6.699 6.7-6.699zm13.399 13.399-6.699 6.699 6.699 6.699 6.7-6.699zm0-13.399-6.699 6.699 6.699 6.699 6.7-6.699zm13.399 13.399-6.699 6.699 6.699 6.699 6.7-6.699zm0-13.399-6.699 6.699 6.699 6.699 6.7-6.699zm13.398 13.399-6.699 6.699 6.699 6.699 6.7-6.699zm0-13.399-6.699 6.699 6.699 6.699 6.7-6.699zm13.399 13.399-6.699 6.699 6.699 6.699 6.7-6.699zm0-13.399-6.699 6.699 6.699 6.699 6.7-6.699zm-6.699-46.897-6.7-6.699-6.699 6.699 6.699 6.699zm13.399 0-6.7-6.699-6.699 6.699 6.699 6.699zm-13.399 13.399-6.7-6.699-6.699 6.699 6.699 6.699zm13.399 0-6.7-6.699-6.699 6.699 6.699 6.699zm-13.399 13.399-6.7-6.699-6.699 6.699 6.699 6.699zm13.399 0-6.7-6.699-6.699 6.699 6.699 6.699zm-13.399 13.399-6.7-6.699-6.699 6.699 6.699 6.7zm13.399 0-6.7-6.699-6.699 6.699 6.699 6.7zm-93.583 16.749c-1.85 0-3.35 1.5-3.35 3.35s1.5 3.35 3.35 3.35 3.35-1.5 3.35-3.35-1.5-3.35-3.35-3.35zm13.189 0c-1.85 0-3.35 1.5-3.35 3.35s1.5 3.35 3.35 3.35 3.35-1.5 3.35-3.35-1.5-3.35-3.35-3.35zm13.399 0c-1.85 0-3.35 1.5-3.35 3.35s1.5 3.35 3.35 3.35 3.35-1.5 3.35-3.35-1.5-3.35-3.35-3.35zm13.399 0c-1.85 0-3.35 1.5-3.35 3.35s1.5 3.35 3.35 3.35 3.35-1.5 3.35-3.35-1.5-3.35-3.35-3.35zm13.399 0c-1.85 0-3.35 1.5-3.35 3.35s1.5 3.35 3.35 3.35 3.35-1.5 3.35-3.35-1.5-3.35-3.35-3.35zm13.399 0c-1.85 0-3.35 1.5-3.35 3.35s1.5 3.35 3.35 3.35 3.35-1.5 3.35-3.35-1.5-3.35-3.35-3.35zm13.347-.046c-1.85 0-3.35 1.5-3.35 3.35s1.5 3.35 3.35 3.35 3.35-1.5 3.35-3.35-1.499-3.35-3.35-3.35zm.052-13.353c-1.85 0-3.35 1.5-3.35 3.35s1.5 3.35 3.35 3.35 3.35-1.5 3.35-3.35-1.5-3.35-3.35-3.35zm0-13.399c-1.85 0-3.35 1.5-3.35 3.35s1.5 3.35 3.35 3.35 3.35-1.5 3.35-3.35-1.5-3.35-3.35-3.35zm0-13.399c-1.85 0-3.35 1.5-3.35 3.35s1.5 3.35 3.35 3.35 3.35-1.5 3.35-3.35-1.5-3.35-3.35-3.35zm0-13.399c-1.85 0-3.35 1.5-3.35 3.35s1.5 3.35 3.35 3.35 3.35-1.5 3.35-3.35-1.5-3.35-3.35-3.35zm0-13.399c-1.85 0-3.35 1.5-3.35 3.35s1.5 3.35 3.35 3.35 3.35-1.5 3.35-3.35-1.5-3.35-3.35-3.35zm-.017-70.368 6.7 6.7 6.699-6.7-6.699-6.699zm-13.399 0 6.7 6.7 6.699-6.7-6.699-6.699zm13.399-13.399 6.7 6.699 6.699-6.699-6.699-6.699zm-13.399 0 6.7 6.699 6.699-6.699-6.699-6.699zm13.399-13.399 6.7 6.699 6.699-6.699-6.699-6.699zm-13.399 0 6.7 6.699 6.699-6.699-6.699-6.699zm13.399-13.399 6.7 6.699 6.699-6.699-6.699-6.699zm-13.399 0 6.7 6.699 6.699-6.699-6.699-6.699zm13.399-13.399 6.7 6.699 6.699-6.699-6.699-6.699zm-13.399 0 6.7 6.699 6.699-6.699-6.699-6.699zm13.399-13.399 6.7 6.699 6.699-6.699-6.699-6.699zm-13.399 0 6.7 6.699 6.699-6.699-6.699-6.699zm13.399-13.399 6.7 6.699 6.699-6.699-6.699-6.699zm-13.399 0 6.7 6.699 6.699-6.699-6.699-6.699zm-60.295 6.7-6.699 6.699 6.699 6.699 6.7-6.699zm0-13.399-6.699 6.699 6.699 6.699 6.7-6.699zm13.399 13.399-6.7 6.699 6.7 6.699 6.699-6.699zm0-13.399-6.7 6.699 6.7 6.699 6.699-6.699zm13.399 13.399-6.7 6.699 6.7 6.699 6.699-6.699zm0-13.399-6.7 6.699 6.7 6.699 6.699-6.699zm13.399 13.399-6.7 6.699 6.7 6.699 6.699-6.699zm0-13.399-6.7 6.699 6.7 6.699 6.699-6.699zm13.399 13.399-6.7 6.699 6.7 6.699 6.699-6.699zm0-13.399-6.7 6.699 6.7 6.699 6.699-6.699zm16.748 93.583c0 1.85 1.5 3.35 3.35 3.35s3.35-1.5 3.35-3.35-1.5-3.35-3.35-3.35-3.35 1.5-3.35 3.35zm0-13.189c0 1.85 1.5 3.35 3.35 3.35s3.35-1.5 3.35-3.35-1.5-3.35-3.35-3.35-3.35 1.5-3.35 3.35zm0-13.399c0 1.85 1.5 3.35 3.35 3.35s3.35-1.5 3.35-3.35-1.5-3.35-3.35-3.35-3.35 1.5-3.35 3.35zm0-13.399c0 1.85 1.5 3.35 3.35 3.35s3.35-1.5 3.35-3.35-1.5-3.35-3.35-3.35-3.35 1.5-3.35 3.35zm0-13.399c0 1.85 1.5 3.35 3.35 3.35s3.35-1.5 3.35-3.35-1.5-3.35-3.35-3.35-3.35 1.5-3.35 3.35zm0-13.399c0 1.85 1.5 3.35 3.35 3.35s3.35-1.5 3.35-3.35-1.5-3.35-3.35-3.35-3.35 1.5-3.35 3.35zm0-13.399c0 1.85 1.5 3.35 3.35 3.35s3.35-1.5 3.35-3.35-1.5-3.35-3.35-3.35-3.35 1.5-3.35 3.35zm-13.399 0c0 1.85 1.5 3.35 3.35 3.35s3.35-1.5 3.35-3.35-1.5-3.35-3.35-3.35-3.35 1.5-3.35 3.35zm-13.399 0c0 1.85 1.5 3.35 3.35 3.35s3.35-1.5 3.35-3.35-1.5-3.35-3.35-3.35-3.35 1.5-3.35 3.35zm-13.399 0c0 1.85 1.5 3.35 3.35 3.35s3.35-1.5 3.35-3.35-1.5-3.35-3.35-3.35-3.35 1.5-3.35 3.35zm-13.399 0c0 1.85 1.5 3.35 3.35 3.35s3.35-1.5 3.35-3.35-1.5-3.35-3.35-3.35-3.35 1.5-3.35 3.35zm-13.398 0c0 1.85 1.5 3.35 3.35 3.35s3.35-1.5 3.35-3.35-1.5-3.35-3.35-3.35-3.35 1.5-3.35 3.35zm-13.399 0c0 1.85 1.5 3.35 3.35 3.35s3.35-1.5 3.35-3.35-1.5-3.35-3.35-3.35-3.35 1.5-3.35 3.35zm-559.391 73.694 6.699 6.7 6.699-6.7-6.699-6.699zm-13.398 0 6.699 6.7 6.699-6.7-6.699-6.699zm10.049 6.49c0 1.85 1.5 3.35 3.35 3.35s3.35-1.5 3.35-3.35-1.5-3.35-3.35-3.35-3.35 1.5-3.35 3.35zm76.992-80.184 6.699-6.699-6.699-6.7-6.699 6.699zm0 13.399 6.699-6.699-6.699-6.699-6.699 6.699zm-13.399-13.399 6.699-6.699-6.699-6.7-6.699 6.699zm0 13.399 6.699-6.699-6.699-6.699-6.699 6.699zm-13.399-13.399 6.699-6.699-6.699-6.7-6.699 6.699zm0 13.399 6.699-6.699-6.699-6.699-6.699 6.699zm-13.399-13.399 6.699-6.699-6.699-6.7-6.699 6.699zm0 13.399 6.699-6.699-6.699-6.699-6.699 6.699zm-13.399-13.399 6.699-6.699-6.699-6.7-6.699 6.699zm0 13.399 6.699-6.699-6.699-6.699-6.699 6.699zm-13.399-13.399 6.699-6.699-6.699-6.7-6.699 6.699zm0 13.399 6.699-6.699-6.699-6.699-6.699 6.699zm-13.399-13.399 6.699-6.699-6.699-6.7-6.699 6.699zm0 13.399 6.699-6.699-6.699-6.699-6.699 6.698zm6.7 46.896 6.699 6.7 6.699-6.7-6.699-6.699zm-13.399 0 6.699 6.7 6.699-6.7-6.699-6.699zm13.399-13.399 6.699 6.699 6.699-6.699-6.699-6.699zm-13.399 0 6.699 6.699 6.699-6.699-6.699-6.699zm13.399-13.399 6.699 6.699 6.699-6.699-6.699-6.699zm-13.399 0 6.699 6.699 6.699-6.699-6.699-6.699zm13.399-13.399 6.699 6.699 6.699-6.699-6.699-6.699zm-13.399 0 6.699 6.699 6.699-6.699-6.699-6.699zm93.583-16.748c1.85 0 3.35-1.5 3.35-3.35s-1.5-3.35-3.35-3.35-3.35 1.5-3.35 3.35 1.5 3.35 3.35 3.35zm-13.189 0c1.85 0 3.35-1.5 3.35-3.35s-1.5-3.35-3.35-3.35-3.35 1.5-3.35 3.35 1.5 3.35 3.35 3.35zm-13.399 0c1.85 0 3.35-1.5 3.35-3.35s-1.5-3.35-3.35-3.35-3.35 1.5-3.35 3.35 1.5 3.35 3.35 3.35zm-13.399 0c1.85 0 3.35-1.5 3.35-3.35s-1.5-3.35-3.35-3.35-3.35 1.5-3.35 3.35 1.5 3.35 3.35 3.35zm-13.399 0c1.85 0 3.35-1.5 3.35-3.35s-1.5-3.35-3.35-3.35-3.35 1.5-3.35 3.35 1.5 3.35 3.35 3.35zm-13.399 0c1.85 0 3.35-1.5 3.35-3.35s-1.5-3.35-3.35-3.35-3.35 1.5-3.35 3.35 1.5 3.35 3.35 3.35zm-13.348.045c1.85 0 3.35-1.5 3.35-3.35s-1.5-3.35-3.35-3.35-3.35 1.5-3.35 3.35 1.5 3.35 3.35 3.35zm-.051 13.354c1.85 0 3.35-1.5 3.35-3.35s-1.5-3.35-3.35-3.35-3.35 1.5-3.35 3.35 1.5 3.35 3.35 3.35zm0 13.399c1.85 0 3.35-1.5 3.35-3.35s-1.5-3.35-3.35-3.35-3.35 1.5-3.35 3.35 1.5 3.35 3.35 3.35zm0 13.399c1.85 0 3.35-1.5 3.35-3.35s-1.5-3.35-3.35-3.35-3.35 1.5-3.35 3.35 1.5 3.35 3.35 3.35zm0 13.399c1.85 0 3.35-1.5 3.35-3.35s-1.5-3.35-3.35-3.35-3.35 1.5-3.35 3.35 1.5 3.35 3.35 3.35zm0 13.399c1.85 0 3.35-1.5 3.35-3.35s-1.5-3.35-3.35-3.35-3.35 1.5-3.35 3.35 1.5 3.35 3.35 3.35z" fill="#fff"/></svg>