<svg height="223.26" viewBox="0 0 600 223.26" width="600" xmlns="http://www.w3.org/2000/svg"><g fill="#fff" transform="translate(-.01)"><path d="m73.67 210.1v-4.25h-56.24v-56.24h-4.26v56.24h-8.9v-56.24h-4.27v73.65h73.67v-4.26h-56.24v-8.9zm-60.5 8.9h-8.9v-8.9h8.91v8.9z"/><path d="m600 149.61h-4.25v56.24h-8.91v-56.24h-4.24v56.24h-56.24v4.25h56.24v8.9h-56.24v4.25h73.64zm-13.16 60.5h8.91v8.89h-8.91v-8.9z"/><path d="m73.67 4.25v-4.25h-73.67v73.65h4.27v-56.24h8.91v56.24h4.25v-56.24h56.24v-4.25h-56.24v-8.91zm-60.5 8.91h-8.9v-8.91h8.91v8.91z"/><path d="m600 .09h-73.67v4.26h56.24v8.91h-56.24v4.24h56.24v56.25h4.25v-56.25h8.91v56.25h4.27zm-13.18 13.16v-8.9h8.91v8.91h-8.91z"/></g></svg>