<svg height="230.53" viewBox="0 0 600 230.53" width="600" xmlns="http://www.w3.org/2000/svg"><g fill="#fff"><path d="m.04 4.83h72.86v4.22h-72.86z"/><path d="m72.91 17.84h-72.87v4.03.19 60.24h4.22v-60.24h8.79v60.24h4.22v-60.24h55.64z"/><path d="m49.29 28.85c-3.55 3.78-6 6.44-6.31 6.71-2.35 2.35 2 6.46-.51 9a2.43 2.43 0 0 1 -3.59-.26 2.19 2.19 0 0 1 -.24-3 1.75 1.75 0 0 1 2.49 0 2.16 2.16 0 0 0 -3.6-.63c-1.24 1.24-.9 3.48 1.15 5.52.26.26 0 .52-.26.26-2-2-4.28-2.39-5.52-1.15a2.16 2.16 0 0 0 .63 3.6 1.75 1.75 0 0 1 0-2.49 2.19 2.19 0 0 1 3 .24 2.43 2.43 0 0 1 .26 3.59c-2.51 2.51-6.62-1.84-9 .51-.28.28-2.95 3-5.45 5.78v-27.68h27z" transform="translate(-.82 -2.17)"/><path d="m582.77 0h-55.74v4.22h55.74v8.79h-55.74v4.22h55.74v60.24h4.22v-77.47h-.12z"/><path d="m595.78 0h4.22v77.47h-4.22z"/><path d="m552.21 24c3.55 3.78 6 6.44 6.31 6.71 2.35 2.35-2 6.46.51 9a2.43 2.43 0 0 0 3.59-.26 2.19 2.19 0 0 0 .24-3 1.75 1.75 0 0 0 -2.49 0 2.16 2.16 0 0 1 3.6-.63c1.24 1.24.9 3.48-1.15 5.52-.26.26 0 .52.26.26 2-2 4.28-2.39 5.52-1.15a2.16 2.16 0 0 1 -.63 3.6 1.75 1.75 0 0 0 0-2.49 2.19 2.19 0 0 0 -3 .24 2.43 2.43 0 0 0 -.26 3.59c2.51 2.51 6.62-1.84 9 .51.28.28 2.95 3 5.45 5.78v-27.68h-27z" transform="translate(-.82 -2.17)"/><path d="m526.84 226.31h72.86v4.22h-72.86z"/><path d="m595.49 153.06v60.24h-8.79v-60.24h-4.22v60.24h-55.64v4.22h72.87v-4.02-.2-60.24z"/><path d="m579.24 184.2c-3.78 3.55-6.44 6-6.71 6.31-2.35 2.35-6.46-2-9 .51a2.43 2.43 0 0 0 .26 3.59 2.19 2.19 0 0 0 3 .24 1.75 1.75 0 0 0 0-2.49 2.16 2.16 0 0 1 .63 3.6c-1.24 1.24-3.48.9-5.52-1.15-.26-.26-.52 0-.26.26 2 2 2.39 4.28 1.15 5.52a2.16 2.16 0 0 1 -3.6-.63 1.75 1.75 0 0 0 2.49 0 2.19 2.19 0 0 0 -.24-3 2.43 2.43 0 0 0 -3.59-.26c-2.51 2.51 1.84 6.62-.51 9-.28.28-3 2.95-5.78 5.45h27.69v-27z" transform="translate(-.82 -2.17)"/><path d="m72.97 213.15v-4.23h-55.74v-60.24h-4.22v77.47h.12 59.84v-4.22h-55.74v-8.78z"/><path d="m0 148.68h4.22v77.47h-4.22z"/><path d="m22.11 179.75c3.78 3.55 6.44 6 6.71 6.31 2.35 2.35 6.46-2 9 .51a2.43 2.43 0 0 1 -.26 3.59 2.19 2.19 0 0 1 -3 .24 1.75 1.75 0 0 1 0-2.49 2.16 2.16 0 0 0 -.63 3.6c1.24 1.24 3.48.9 5.52-1.15.26-.26.52 0 .26.26-2 2-2.39 4.28-1.15 5.52a2.16 2.16 0 0 0 3.6-.63 1.75 1.75 0 0 1 -2.49 0 2.19 2.19 0 0 1 .24-3 2.43 2.43 0 0 1 3.59-.26c2.51 2.51-1.84 6.62.51 9 .28.28 3 2.95 5.78 5.45h-27.68v-27z" transform="translate(-.82 -2.17)"/></g></svg>