<svg height="212.71" viewBox="0 0 600 212.71" width="600" xmlns="http://www.w3.org/2000/svg"><g fill="#fff"><path d="m.62 135.11h8.98v1.14h-8.98z"/><path d="m.62 140.26h8.98v1.14h-8.98z"/><path d="m.62 145.41h8.98v1.14h-8.98z"/><path d="m.62 150.56h8.98v1.14h-8.98z"/><path d="m.62 155.71h8.98v1.14h-8.98z"/><path d="m.62 160.86h8.98v1.14h-8.98z"/><path d="m.62 166.01h8.98v1.14h-8.98z"/><path d="m.62 171.16h8.98v1.14h-8.98z"/><path d="m.62 176.31h8.98v1.14h-8.98z"/><path d="m.62 181.46h8.98v1.14h-8.98z"/><path d="m.62 186.61h8.98v1.14h-8.98z"/><path d="m.62 191.76h8.98v1.14h-8.98z"/><path d="m.62 196.91h8.98v1.14h-8.98z"/><path d="m14.1 203.15h1.14v8.98h-1.14z"/><path d="m19.25 203.15h1.14v8.98h-1.14z"/><path d="m24.4 203.15h1.14v8.98h-1.14z"/><path d="m29.55 203.15h1.14v8.98h-1.14z"/><path d="m34.7 203.15h1.14v8.98h-1.14z"/><path d="m39.85 203.15h1.14v8.98h-1.14z"/><path d="m45 203.15h1.14v8.98h-1.14z"/><path d="m50.15 203.15h1.14v8.98h-1.14z"/><path d="m55.3 203.15h1.14v8.98h-1.14z"/><path d="m60.45 203.15h1.14v8.98h-1.14z"/><path d="m65.6 203.15h1.14v8.98h-1.14z"/><path d="m70.75 203.15h1.14v8.98h-1.14z"/><path d="m75.9 203.15h1.14v8.98h-1.14z"/><path d="m82.21 212.71h-73.21v-9h-9v-73.88h10.18v72.75h72v10.12zm-72-1.15h70.85v-7.84h-70.88v7.84zm-9-9h7.79v-71.56h-7.8v71.61z" transform="translate(-.01)"/><path d="m76.45.57h1.14v8.98h-1.14z"/><path d="m71.3.57h1.14v8.98h-1.14z"/><path d="m66.15.57h1.14v8.98h-1.14z"/><path d="m61 .57h1.14v8.98h-1.14z"/><path d="m55.85.57h1.14v8.98h-1.14z"/><path d="m50.7.57h1.14v8.98h-1.14z"/><path d="m45.55.57h1.14v8.98h-1.14z"/><path d="m40.4.57h1.14v8.98h-1.14z"/><path d="m35.25.57h1.14v8.98h-1.14z"/><path d="m30.1.57h1.14v8.98h-1.14z"/><path d="m24.95.57h1.14v8.98h-1.14z"/><path d="m19.8.57h1.14v8.98h-1.14z"/><path d="m14.65.57h1.14v8.98h-1.14z"/><path d="m.57 14.05h8.98v1.14h-8.98z"/><path d="m.57 19.2h8.98v1.14h-8.98z"/><path d="m.57 24.35h8.98v1.14h-8.98z"/><path d="m.57 29.5h8.98v1.14h-8.98z"/><path d="m.57 34.65h8.98v1.14h-8.98z"/><path d="m.57 39.8h8.98v1.14h-8.98z"/><path d="m.57 44.95h8.98v1.14h-8.98z"/><path d="m.57 50.11h8.98v1.14h-8.98z"/><path d="m.57 55.26h8.98v1.14h-8.98z"/><path d="m.57 60.41h8.98v1.14h-8.98z"/><path d="m.57 65.56h8.98v1.14h-8.98z"/><path d="m.57 70.71h8.98v1.14h-8.98z"/><path d="m.57 75.86h8.98v1.14h-8.98z"/><path d="m0 82.15v-73.15h9v-9h73.88v10.12h-72.75v72h-10.13zm1.15-1.15h7.85v-70.88h-7.85zm9-72h71.59v-7.86h-71.61v7.86z" transform="translate(-.01)"/><path d="m590.4 76.45h8.98v1.14h-8.98z"/><path d="m590.4 71.3h8.98v1.14h-8.98z"/><path d="m590.4 66.15h8.98v1.14h-8.98z"/><path d="m590.4 61h8.98v1.14h-8.98z"/><path d="m590.4 55.85h8.98v1.14h-8.98z"/><path d="m590.4 50.7h8.98v1.14h-8.98z"/><path d="m590.4 45.55h8.98v1.14h-8.98z"/><path d="m590.4 40.4h8.98v1.14h-8.98z"/><path d="m590.4 35.25h8.98v1.14h-8.98z"/><path d="m590.4 30.1h8.98v1.14h-8.98z"/><path d="m590.4 24.95h8.98v1.14h-8.98z"/><path d="m590.4 19.8h8.98v1.14h-8.98z"/><path d="m590.4 14.65h8.98v1.14h-8.98z"/><path d="m584.76.57h1.14v8.98h-1.14z"/><path d="m579.61.57h1.14v8.98h-1.14z"/><path d="m574.46.57h1.14v8.98h-1.14z"/><path d="m569.31.57h1.14v8.98h-1.14z"/><path d="m564.16.57h1.14v8.98h-1.14z"/><path d="m559.01.57h1.14v8.98h-1.14z"/><path d="m553.86.57h1.14v8.98h-1.14z"/><path d="m548.7.57h1.14v8.98h-1.14z"/><path d="m543.55.57h1.14v8.98h-1.14z"/><path d="m538.4.57h1.14v8.98h-1.14z"/><path d="m533.25.57h1.14v8.98h-1.14z"/><path d="m528.1.57h1.14v8.98h-1.14z"/><path d="m522.95.57h1.14v8.98h-1.14z"/><path d="m600 82.87h-10.16v-72.75h-72v-10.12h73.16v9h9zm-9-1.14h7.84v-71.61h-7.84zm-72-72.73h70.89v-7.86h-70.89z" transform="translate(-.01)"/><path d="m522.4 203.15h1.14v8.98h-1.14z"/><path d="m527.55 203.15h1.14v8.98h-1.14z"/><path d="m532.7 203.15h1.14v8.98h-1.14z"/><path d="m537.85 203.15h1.14v8.98h-1.14z"/><path d="m543 203.15h1.14v8.98h-1.14z"/><path d="m548.15 203.15h1.14v8.98h-1.14z"/><path d="m553.31 203.15h1.14v8.98h-1.14z"/><path d="m558.46 203.15h1.14v8.98h-1.14z"/><path d="m563.61 203.15h1.14v8.98h-1.14z"/><path d="m568.76 203.15h1.14v8.98h-1.14z"/><path d="m573.91 203.15h1.14v8.98h-1.14z"/><path d="m579.06 203.15h1.14v8.98h-1.14z"/><path d="m584.21 203.15h1.14v8.98h-1.14z"/><path d="m590.45 197.51h8.98v1.14h-8.98z"/><path d="m590.45 192.36h8.98v1.14h-8.98z"/><path d="m590.45 187.21h8.98v1.14h-8.98z"/><path d="m590.45 182.06h8.98v1.14h-8.98z"/><path d="m590.45 176.91h8.98v1.14h-8.98z"/><path d="m590.45 171.76h8.98v1.14h-8.98z"/><path d="m590.45 166.61h8.98v1.14h-8.98z"/><path d="m590.45 161.46h8.98v1.14h-8.98z"/><path d="m590.45 156.31h8.98v1.14h-8.98z"/><path d="m590.45 151.16h8.98v1.14h-8.98z"/><path d="m590.45 146.01h8.98v1.14h-8.98z"/><path d="m590.45 140.86h8.98v1.14h-8.98z"/><path d="m590.45 135.71h8.98v1.14h-8.98z"/><path d="m591 212.71h-73.87v-10.13h72.75v-72h10.12v73.17h-9v9zm-72.75-1.14h71.61v-7.84h-71.58v7.84zm72.75-9h7.84v-70.87h-7.84v70.89z" transform="translate(-.01)"/></g></svg>