<svg height="223.26" viewBox="0 0 600 223.26" width="600" xmlns="http://www.w3.org/2000/svg"><g fill="#fff" transform="translate(-1 -5.37)"><path d="m74.65 215.47v-4.25h-31.38a34.76 34.76 0 0 0 -24.85-24.79v-31.43h-4.26v56.24h-8.91v-56.24h-4.25v73.65h73.65v-4.25h-56.24v-8.91h56.24zm-60.5 8.91h-8.9v-8.91h8.91v8.91zm24.49-13.16h-16.64l10.79-10.79a30 30 0 0 1 5.86 10.79zm-9-14-11.23 11.25v-17.47a30.16 30.16 0 0 1 11.21 6.26z"/><path d="m596.75 155v56.24h-8.91v-56.24h-4.25v31.64a34.76 34.76 0 0 0 -24.15 24.6h-32.1v4.25h56.24v8.91h-56.24v4.25h73.66v-73.65zm-13.16 36.29v16.5l-10.51-10.51a30.19 30.19 0 0 1 10.51-6.01zm-13.59 9.14 10.79 10.79h-16.73a30 30 0 0 1 5.94-10.79zm26.79 24h-8.91v-8.91h8.91z"/><path d="m74.66 9.62v-4.25h-73.66v73.63h4.25v-56.22h8.91v56.22h4.25v-31.2a34.76 34.76 0 0 0 24.86-24.8l.06-.23h31.33v-4.24h-56.25v-8.91zm-60.5 8.91h-8.91v-8.91h8.91zm4.25 24.66v-17.43l11.21 11.24a30.16 30.16 0 0 1 -11.21 6.19zm14.34-9.39-11-11h17a30 30 0 0 1 -6 11z"/><path d="m527.31 5.46v4.25h56.24v8.91h-56.24v4.25h32.09v.14a34.76 34.76 0 0 0 24.16 24.59v31.52h4.25v-56.25h8.91v56.25h4.28v-73.66zm36.69 17.41h16.87l-10.87 10.93a30 30 0 0 1 -6-10.93zm9.08 14.13 10.48-10.5v16.5a30.19 30.19 0 0 1 -10.48-6zm23.63-18.35h-8.91v-8.94h8.91v8.91z"/></g></svg>