<svg height="216" viewBox="0 0 600 216" width="600" xmlns="http://www.w3.org/2000/svg"><g fill="#fff"><path d="m1.77 137.77h8.48v8.48h-8.48z" transform="matrix(.70710678 .70710678 -.70710678 .70710678 102.18 33.34)"/><path d="m13.77 137.77h8.48v8.48h-8.48z" transform="matrix(.70710678 .70710678 -.70710678 .70710678 105.69 24.86)"/><path d="m1.77 149.76h8.48v8.48h-8.48z" transform="matrix(.70710678 .70710678 -.70710678 .70710678 110.66 36.86)"/><path d="m13.77 149.76h8.48v8.48h-8.48z" transform="matrix(.70710678 .70710678 -.70710678 .70710678 114.18 28.37)"/><path d="m1.77 161.76h8.48v8.48h-8.48z" transform="matrix(.70710678 .70710678 -.70710678 .70710678 119.15 40.37)"/><path d="m13.77 161.76h8.48v8.48h-8.48z" transform="matrix(.70710678 .70710678 -.70710678 .70710678 122.66 31.89)"/><path d="m1.77 173.76h8.48v8.48h-8.48z" transform="matrix(.70710678 .70710678 -.70710678 .70710678 127.63 43.89)"/><path d="m13.77 173.76h8.48v8.48h-8.48z" transform="matrix(.70710678 .70710678 -.70710678 .70710678 131.14 35.4)"/><path d="m1.77 185.76h8.48v8.48h-8.48z" transform="matrix(.70710678 .70710678 -.70710678 .70710678 136.11 47.4)"/><path d="m13.77 185.76h8.48v8.48h-8.48z" transform="matrix(.70710678 .70710678 -.70710678 .70710678 139.63 38.92)"/><path d="m1.77 197.76h8.48v8.48h-8.48z" transform="matrix(.70710678 .70710678 -.70710678 .70710678 144.6 50.91)"/><path d="m13.77 197.76h8.48v8.48h-8.48z" transform="matrix(.70710678 .70710678 -.70710678 .70710678 148.11 42.43)"/><path d="m1.77 209.76h8.48v8.48h-8.48z" transform="matrix(.70710678 .70710678 -.70710678 .70710678 153.08 54.43)"/><path d="m13.77 209.76h8.48v8.48h-8.48z" transform="matrix(.70710678 .70710678 -.70710678 .70710678 156.6 45.94)"/><path d="m73.77 197.76h8.48v8.48h-8.48z" transform="matrix(-.70710678 .70710678 -.70710678 -.70710678 276.01 285.68)"/><path d="m73.77 209.76h8.48v8.48h-8.48z" transform="matrix(-.70710678 .70710678 -.70710678 -.70710678 284.49 306.17)"/><path d="m61.77 197.76h8.48v8.48h-8.48z" transform="matrix(-.70710678 .70710678 -.70710678 -.70710678 255.52 294.17)"/><path d="m61.77 209.76h8.48v8.48h-8.48z" transform="matrix(-.70710678 .70710678 -.70710678 -.70710678 264.01 314.65)"/><path d="m49.77 197.76h8.48v8.48h-8.48z" transform="matrix(-.70710678 .70710678 -.70710678 -.70710678 235.04 302.65)"/><path d="m49.77 209.76h8.48v8.48h-8.48z" transform="matrix(-.70710678 .70710678 -.70710678 -.70710678 243.53 323.14)"/><path d="m37.77 197.76h8.48v8.48h-8.48z" transform="matrix(-.70710678 .70710678 -.70710678 -.70710678 214.56 311.14)"/><path d="m37.77 209.76h8.48v8.48h-8.48z" transform="matrix(-.70710678 .70710678 -.70710678 -.70710678 223.04 331.62)"/><path d="m25.77 197.76h8.48v8.48h-8.48z" transform="matrix(-.70710678 .70710678 -.70710678 -.70710678 194.07 319.62)"/><path d="m25.77 209.76h8.48v8.48h-8.48z" transform="matrix(-.70710678 .70710678 -.70710678 -.70710678 202.56 340.1)"/><circle cx="12.01" cy="132.2" r="3"/><circle cx="12.01" cy="144.01" r="3"/><circle cx="12.01" cy="156.01" r="3"/><path d="m1.77 101.77h8.48v8.48h-8.48z" transform="matrix(.70710678 .70710678 -.70710678 .70710678 76.72 22.8)"/><path d="m13.77 101.77h8.48v8.48h-8.48z" transform="matrix(.70710678 .70710678 -.70710678 .70710678 80.24 14.31)"/><path d="m1.77 113.77h8.48v8.48h-8.48z" transform="matrix(.70710678 .70710678 -.70710678 .70710678 85.21 26.31)"/><path d="m13.77 113.77h8.48v8.48h-8.48z" transform="matrix(.70710678 .70710678 -.70710678 .70710678 88.72 17.83)"/><path d="m1.77 125.77h8.48v8.48h-8.48z" transform="matrix(.70710678 .70710678 -.70710678 .70710678 93.69 29.83)"/><path d="m13.77 125.77h8.48v8.48h-8.48z" transform="matrix(.70710678 .70710678 -.70710678 .70710678 97.21 21.34)"/><circle cx="12.01" cy="96.2" r="3"/><circle cx="12.01" cy="108.01" r="3"/><circle cx="12.01" cy="120.01" r="3"/><path d="m577.71 137.77h8.48v8.48h-8.48z" transform="matrix(.70710678 .70710678 -.70710678 .70710678 270.87 -373.91)"/><path d="m589.71 137.77h8.48v8.48h-8.48z" transform="matrix(.70710678 .70710678 -.70710678 .70710678 274.38 -382.39)"/><circle cx="587.95" cy="132.2" r="3"/><path d="m577.71 113.77h8.48v8.48h-8.48z" transform="matrix(.70710678 .70710678 -.70710678 .70710678 253.9 -380.94)"/><path d="m589.71 113.77h8.48v8.48h-8.48z" transform="matrix(.70710678 .70710678 -.70710678 .70710678 257.41 -389.42)"/><path d="m577.71 125.77h8.48v8.48h-8.48z" transform="matrix(.70710678 .70710678 -.70710678 .70710678 262.38 -377.42)"/><path d="m589.71 125.77h8.48v8.48h-8.48z" transform="matrix(.70710678 .70710678 -.70710678 .70710678 265.9 -385.91)"/><circle cx="587.95" cy="108.01" r="3"/><circle cx="587.95" cy="120.01" r="3"/><circle cx="12.01" cy="168.01" r="3"/><circle cx="12.01" cy="180.01" r="3"/><circle cx="12.01" cy="192.01" r="3"/><circle cx="12.01" cy="204" r="3"/><circle cx="24.01" cy="204" r="3"/><circle cx="36.01" cy="204" r="3"/><circle cx="48.01" cy="204" r="3"/><circle cx="60.01" cy="204" r="3"/><circle cx="72.01" cy="204" r="3"/><circle cx="84.01" cy="204" r="3"/><path d="m133.76 197.76h8.48v8.48h-8.48z" transform="matrix(-.70710678 .70710678 -.70710678 -.70710678 378.43 243.26)"/><path d="m133.76 209.76h8.48v8.48h-8.48z" transform="matrix(-.70710678 .70710678 -.70710678 -.70710678 386.91 263.74)"/><path d="m121.76 197.76h8.48v8.48h-8.48z" transform="matrix(-.70710678 .70710678 -.70710678 -.70710678 357.94 251.74)"/><path d="m121.76 209.76h8.48v8.48h-8.48z" transform="matrix(-.70710678 .70710678 -.70710678 -.70710678 366.43 272.23)"/><path d="m109.76 197.76h8.48v8.48h-8.48z" transform="matrix(-.70710678 .70710678 -.70710678 -.70710678 337.46 260.23)"/><path d="m109.76 209.76h8.48v8.48h-8.48z" transform="matrix(-.70710678 .70710678 -.70710678 -.70710678 345.94 280.71)"/><path d="m97.77 197.76h8.48v8.48h-8.48z" transform="matrix(-.70710678 .70710678 -.70710678 -.70710678 316.98 268.71)"/><path d="m97.77 209.76h8.48v8.48h-8.48z" transform="matrix(-.70710678 .70710678 -.70710678 -.70710678 325.46 289.2)"/><path d="m85.77 197.76h8.48v8.48h-8.48z" transform="matrix(-.70710678 .70710678 -.70710678 -.70710678 296.49 277.2)"/><path d="m85.77 209.76h8.48v8.48h-8.48z" transform="matrix(-.70710678 .70710678 -.70710678 -.70710678 304.98 297.68)"/><circle cx="96.01" cy="204" r="3"/><circle cx="108.01" cy="204" r="3"/><circle cx="120.01" cy="204" r="3"/><circle cx="132.01" cy="204" r="3"/><circle cx="144" cy="204" r="3"/><path d="m145.76 197.76h8.48v8.48h-8.48z" transform="matrix(-.70710678 .70710678 -.70710678 -.70710678 398.91 234.77)"/><path d="m145.76 209.76h8.48v8.48h-8.48z" transform="matrix(-.70710678 .70710678 -.70710678 -.70710678 407.4 255.26)"/><circle cx="156" cy="204" r="3"/><path d="m205.76 197.76h8.48v8.48h-8.48z" transform="matrix(-.70710678 .70710678 -.70710678 -.70710678 501.33 192.35)"/><path d="m205.76 209.76h8.48v8.48h-8.48z" transform="matrix(-.70710678 .70710678 -.70710678 -.70710678 509.81 212.84)"/><path d="m193.76 197.76h8.48v8.48h-8.48z" transform="matrix(-.70710678 .70710678 -.70710678 -.70710678 480.85 200.84)"/><path d="m193.76 209.76h8.48v8.48h-8.48z" transform="matrix(-.70710678 .70710678 -.70710678 -.70710678 489.33 221.32)"/><path d="m181.76 197.76h8.48v8.48h-8.48z" transform="matrix(-.70710678 .70710678 -.70710678 -.70710678 460.36 209.32)"/><path d="m181.76 209.76h8.48v8.48h-8.48z" transform="matrix(-.70710678 .70710678 -.70710678 -.70710678 468.85 229.8)"/><path d="m169.76 197.76h8.48v8.48h-8.48z" transform="matrix(-.70710678 .70710678 -.70710678 -.70710678 439.88 217.81)"/><path d="m169.76 209.76h8.48v8.48h-8.48z" transform="matrix(-.70710678 .70710678 -.70710678 -.70710678 448.36 238.29)"/><path d="m157.76 197.76h8.48v8.48h-8.48z" transform="matrix(-.70710678 .70710678 -.70710678 -.70710678 419.39 226.29)"/><path d="m157.76 209.76h8.48v8.48h-8.48z" transform="matrix(-.70710678 .70710678 -.70710678 -.70710678 427.88 246.77)"/><circle cx="168" cy="204" r="3"/><circle cx="180" cy="204" r="3"/><circle cx="192" cy="204" r="3"/><circle cx="204" cy="204" r="3"/><circle cx="216" cy="204" r="3"/><path d="m253.75 197.76h8.48v8.48h-8.48z" transform="matrix(-.70710678 .70710678 -.70710678 -.70710678 583.26 158.41)"/><path d="m253.75 209.76h8.48v8.48h-8.48z" transform="matrix(-.70710678 .70710678 -.70710678 -.70710678 591.75 178.9)"/><path d="m241.75 197.76h8.48v8.48h-8.48z" transform="matrix(-.70710678 .70710678 -.70710678 -.70710678 562.78 166.9)"/><path d="m241.75 209.76h8.48v8.48h-8.48z" transform="matrix(-.70710678 .70710678 -.70710678 -.70710678 571.26 187.38)"/><path d="m229.76 197.76h8.48v8.48h-8.48z" transform="matrix(-.70710678 .70710678 -.70710678 -.70710678 542.3 175.38)"/><path d="m229.76 209.76h8.48v8.48h-8.48z" transform="matrix(-.70710678 .70710678 -.70710678 -.70710678 550.78 195.87)"/><path d="m217.76 197.76h8.48v8.48h-8.48z" transform="matrix(-.70710678 .70710678 -.70710678 -.70710678 521.81 183.87)"/><path d="m217.76 209.76h8.48v8.48h-8.48z" transform="matrix(-.70710678 .70710678 -.70710678 -.70710678 530.3 204.35)"/><circle cx="228" cy="204" r="3"/><circle cx="240" cy="204" r="3"/><circle cx="252" cy="204" r="3"/><circle cx="264" cy="204" r="3"/><path d="m313.75 197.76h8.48v8.48h-8.48z" transform="matrix(-.70710678 .70710678 -.70710678 -.70710678 685.68 115.99)"/><path d="m313.75 209.76h8.48v8.48h-8.48z" transform="matrix(-.70710678 .70710678 -.70710678 -.70710678 694.17 136.47)"/><path d="m301.75 197.76h8.48v8.48h-8.48z" transform="matrix(-.70710678 .70710678 -.70710678 -.70710678 665.2 124.47)"/><path d="m301.75 209.76h8.48v8.48h-8.48z" transform="matrix(-.70710678 .70710678 -.70710678 -.70710678 673.68 144.96)"/><path d="m289.75 197.76h8.48v8.48h-8.48z" transform="matrix(-.70710678 .70710678 -.70710678 -.70710678 644.72 132.96)"/><path d="m289.75 209.76h8.48v8.48h-8.48z" transform="matrix(-.70710678 .70710678 -.70710678 -.70710678 653.2 153.44)"/><path d="m277.75 197.76h8.48v8.48h-8.48z" transform="matrix(-.70710678 .70710678 -.70710678 -.70710678 624.23 141.44)"/><path d="m277.75 209.76h8.48v8.48h-8.48z" transform="matrix(-.70710678 .70710678 -.70710678 -.70710678 632.72 161.93)"/><path d="m265.75 197.76h8.48v8.48h-8.48z" transform="matrix(-.70710678 .70710678 -.70710678 -.70710678 603.75 149.93)"/><path d="m265.75 209.76h8.48v8.48h-8.48z" transform="matrix(-.70710678 .70710678 -.70710678 -.70710678 612.23 170.41)"/><circle cx="275.99" cy="204" r="3"/><circle cx="287.99" cy="204" r="3"/><circle cx="299.99" cy="204" r="3"/><circle cx="311.99" cy="204" r="3"/><circle cx="323.99" cy="204" r="3"/><path d="m325.75 197.76h8.48v8.48h-8.48z" transform="matrix(-.70710678 .70710678 -.70710678 -.70710678 706.17 107.51)"/><path d="m325.75 209.76h8.48v8.48h-8.48z" transform="matrix(-.70710678 .70710678 -.70710678 -.70710678 714.65 127.99)"/><circle cx="335.99" cy="204" r="3"/><path d="m385.74 197.76h8.48v8.48h-8.48z" transform="matrix(-.70710678 .70710678 -.70710678 -.70710678 808.59 65.08)"/><path d="m385.74 209.76h8.48v8.48h-8.48z" transform="matrix(-.70710678 .70710678 -.70710678 -.70710678 817.07 85.57)"/><path d="m373.74 197.76h8.48v8.48h-8.48z" transform="matrix(-.70710678 .70710678 -.70710678 -.70710678 788.1 73.57)"/><path d="m373.74 209.76h8.48v8.48h-8.48z" transform="matrix(-.70710678 .70710678 -.70710678 -.70710678 796.59 94.05)"/><path d="m361.75 197.76h8.48v8.48h-8.48z" transform="matrix(-.70710678 .70710678 -.70710678 -.70710678 767.62 82.05)"/><path d="m361.75 209.76h8.48v8.48h-8.48z" transform="matrix(-.70710678 .70710678 -.70710678 -.70710678 776.1 102.53)"/><path d="m349.75 197.76h8.48v8.48h-8.48z" transform="matrix(-.70710678 .70710678 -.70710678 -.70710678 747.13 90.54)"/><path d="m349.75 209.76h8.48v8.48h-8.48z" transform="matrix(-.70710678 .70710678 -.70710678 -.70710678 755.62 111.02)"/><path d="m337.75 197.76h8.48v8.48h-8.48z" transform="matrix(-.70710678 .70710678 -.70710678 -.70710678 726.65 99.02)"/><path d="m337.75 209.76h8.48v8.48h-8.48z" transform="matrix(-.70710678 .70710678 -.70710678 -.70710678 735.13 119.5)"/><circle cx="347.99" cy="204" r="3"/><circle cx="359.99" cy="204" r="3"/><circle cx="371.99" cy="204" r="3"/><circle cx="383.99" cy="204" r="3"/><path d="m409.74 197.76h8.48v8.48h-8.48z" transform="matrix(-.70710678 .70710678 -.70710678 -.70710678 849.55 48.11)"/><path d="m409.74 209.76h8.48v8.48h-8.48z" transform="matrix(-.70710678 .70710678 -.70710678 -.70710678 858.04 68.6)"/><path d="m397.74 197.76h8.48v8.48h-8.48z" transform="matrix(-.70710678 .70710678 -.70710678 -.70710678 829.07 56.6)"/><path d="m397.74 209.76h8.48v8.48h-8.48z" transform="matrix(-.70710678 .70710678 -.70710678 -.70710678 837.55 77.08)"/><circle cx="407.98" cy="204" r="3"/><circle cx="419.98" cy="204" r="3"/><path d="m421.74 197.76h8.48v8.48h-8.48z" transform="matrix(-.70710678 .70710678 -.70710678 -.70710678 870.04 39.63)"/><path d="m421.74 209.76h8.48v8.48h-8.48z" transform="matrix(-.70710678 .70710678 -.70710678 -.70710678 878.52 60.11)"/><circle cx="431.98" cy="204" r="3"/><path d="m481.74 197.76h8.48v8.48h-8.48z" transform="matrix(-.70710678 .70710678 -.70710678 -.70710678 972.46 -2.8)"/><path d="m481.74 209.76h8.48v8.48h-8.48z" transform="matrix(-.70710678 .70710678 -.70710678 -.70710678 980.94 17.69)"/><path d="m469.74 197.76h8.48v8.48h-8.48z" transform="matrix(-.70710678 .70710678 -.70710678 -.70710678 951.97 5.69)"/><path d="m469.74 209.76h8.48v8.48h-8.48z" transform="matrix(-.70710678 .70710678 -.70710678 -.70710678 960.46 26.17)"/><path d="m457.74 197.76h8.48v8.48h-8.48z" transform="matrix(-.70710678 .70710678 -.70710678 -.70710678 931.49 14.17)"/><path d="m457.74 209.76h8.48v8.48h-8.48z" transform="matrix(-.70710678 .70710678 -.70710678 -.70710678 939.97 34.66)"/><path d="m445.74 197.76h8.48v8.48h-8.48z" transform="matrix(-.70710678 .70710678 -.70710678 -.70710678 911 22.66)"/><path d="m445.74 209.76h8.48v8.48h-8.48z" transform="matrix(-.70710678 .70710678 -.70710678 -.70710678 919.49 43.14)"/><path d="m433.74 197.76h8.48v8.48h-8.48z" transform="matrix(-.70710678 .70710678 -.70710678 -.70710678 890.52 31.14)"/><path d="m433.74 209.76h8.48v8.48h-8.48z" transform="matrix(-.70710678 .70710678 -.70710678 -.70710678 899 51.63)"/><circle cx="443.98" cy="204" r="3"/><circle cx="455.98" cy="204" r="3"/><circle cx="467.98" cy="204" r="3"/><circle cx="479.98" cy="204" r="3"/><path d="m505.78 197.76h8.48v8.48h-8.48z" transform="matrix(-.70710678 .70710678 -.70710678 -.70710678 1013.5 -19.8)"/><path d="m505.78 209.76h8.48v8.48h-8.48z" transform="matrix(-.70710678 .70710678 -.70710678 -.70710678 1021.98 .69)"/><path d="m493.78 197.76h8.48v8.48h-8.48z" transform="matrix(-.70710678 .70710678 -.70710678 -.70710678 993.01 -11.31)"/><path d="m493.78 209.76h8.48v8.48h-8.48z" transform="matrix(-.70710678 .70710678 -.70710678 -.70710678 1001.5 9.17)"/><circle cx="492.02" cy="204" r="3"/><circle cx="504.02" cy="204" r="3"/><circle cx="395.99" cy="204" r="3"/><path d="m517.76 209.76h8.48v8.48h-8.48z" transform="matrix(.70710678 -.70710678 .70710678 .70710678 1.57 427.8)"/><path d="m517.76 197.76h8.48v8.48h-8.48z" transform="matrix(.70710678 -.70710678 .70710678 .70710678 10.05 424.28)"/><path d="m529.76 209.76h8.48v8.48h-8.48z" transform="matrix(.70710678 -.70710678 .70710678 .70710678 5.08 436.28)"/><path d="m529.76 197.76h8.48v8.48h-8.48z" transform="matrix(.70710678 -.70710678 .70710678 .70710678 13.57 432.77)"/><path d="m541.76 209.76h8.48v8.48h-8.48z" transform="matrix(.70710678 -.70710678 .70710678 .70710678 8.6 444.77)"/><path d="m541.76 197.76h8.48v8.48h-8.48z" transform="matrix(.70710678 -.70710678 .70710678 .70710678 17.08 441.25)"/><path d="m553.76 209.76h8.48v8.48h-8.48z" transform="matrix(.70710678 -.70710678 .70710678 .70710678 12.11 453.25)"/><path d="m553.76 197.76h8.48v8.48h-8.48z" transform="matrix(.70710678 -.70710678 .70710678 .70710678 20.6 449.74)"/><path d="m565.76 209.76h8.48v8.48h-8.48z" transform="matrix(.70710678 -.70710678 .70710678 .70710678 15.63 461.73)"/><path d="m565.76 197.76h8.48v8.48h-8.48z" transform="matrix(.70710678 -.70710678 .70710678 .70710678 24.11 458.22)"/><path d="m577.76 209.76h8.48v8.48h-8.48z" transform="matrix(.70710678 -.70710678 .70710678 .70710678 19.14 470.22)"/><path d="m577.76 197.76h8.48v8.48h-8.48z" transform="matrix(.70710678 -.70710678 .70710678 .70710678 27.63 466.7)"/><path d="m589.76 209.76h8.48v8.48h-8.48z" transform="matrix(.70710678 -.70710678 .70710678 .70710678 22.66 478.7)"/><path d="m589.76 197.76h8.48v8.48h-8.48z" transform="matrix(.70710678 -.70710678 .70710678 .70710678 31.14 475.19)"/><path d="m577.76 149.76h8.48v8.48h-8.48z" transform="matrix(.70710678 .70710678 -.70710678 .70710678 279.36 -370.43)"/><path d="m589.76 149.76h8.48v8.48h-8.48z" transform="matrix(.70710678 .70710678 -.70710678 .70710678 282.88 -378.91)"/><path d="m577.76 161.76h8.48v8.48h-8.48z" transform="matrix(.70710678 .70710678 -.70710678 .70710678 287.85 -366.91)"/><path d="m589.76 161.76h8.48v8.48h-8.48z" transform="matrix(.70710678 .70710678 -.70710678 .70710678 291.36 -375.4)"/><path d="m577.76 173.76h8.48v8.48h-8.48z" transform="matrix(.70710678 .70710678 -.70710678 .70710678 296.33 -363.4)"/><path d="m589.76 173.76h8.48v8.48h-8.48z" transform="matrix(.70710678 .70710678 -.70710678 .70710678 299.85 -371.88)"/><path d="m577.76 185.76h8.48v8.48h-8.48z" transform="matrix(.70710678 .70710678 -.70710678 .70710678 304.82 -359.88)"/><path d="m589.76 185.76h8.48v8.48h-8.48z" transform="matrix(.70710678 .70710678 -.70710678 .70710678 308.33 -368.37)"/><circle cx="516.19" cy="204" r="3"/><circle cx="528.01" cy="204" r="3"/><circle cx="540" cy="204" r="3"/><circle cx="552" cy="204" r="3"/><circle cx="564" cy="204" r="3"/><circle cx="576" cy="204" r="3"/><circle cx="587.95" cy="203.96" r="3"/><circle cx="588" cy="192.01" r="3"/><circle cx="588" cy="180.01" r="3"/><circle cx="588" cy="168.01" r="3"/><circle cx="588" cy="156.01" r="3"/><circle cx="588" cy="144.01" r="3"/><path d="m589.74 77.75h8.48v8.48h-8.48z" transform="matrix(-.70710678 -.70710678 .70710678 -.70710678 956.02 555.98)"/><path d="m577.74 77.75h8.48v8.48h-8.48z" transform="matrix(-.70710678 -.70710678 .70710678 -.70710678 935.54 547.5)"/><path d="m589.74 65.75h8.48v8.48h-8.48z" transform="matrix(-.70710678 -.70710678 .70710678 -.70710678 964.5 535.5)"/><path d="m577.74 65.75h8.48v8.48h-8.48z" transform="matrix(-.70710678 -.70710678 .70710678 -.70710678 944.02 527.01)"/><path d="m589.74 53.75h8.48v8.48h-8.48z" transform="matrix(-.70710678 -.70710678 .70710678 -.70710678 972.99 515.01)"/><path d="m577.74 53.75h8.48v8.48h-8.48z" transform="matrix(-.70710678 -.70710678 .70710678 -.70710678 952.5 506.53)"/><path d="m589.74 41.75h8.48v8.48h-8.48z" transform="matrix(-.70710678 -.70710678 .70710678 -.70710678 981.47 494.53)"/><path d="m577.74 41.75h8.48v8.48h-8.48z" transform="matrix(-.70710678 -.70710678 .70710678 -.70710678 960.99 486.05)"/><path d="m589.74 29.75h8.48v8.48h-8.48z" transform="matrix(-.70710678 -.70710678 .70710678 -.70710678 989.96 474.05)"/><path d="m577.74 29.75h8.48v8.48h-8.48z" transform="matrix(-.70710678 -.70710678 .70710678 -.70710678 969.47 465.56)"/><path d="m589.74 17.75h8.48v8.48h-8.48z" transform="matrix(-.70710678 -.70710678 .70710678 -.70710678 998.44 453.56)"/><path d="m577.74 17.75h8.48v8.48h-8.48z" transform="matrix(-.70710678 -.70710678 .70710678 -.70710678 977.96 445.08)"/><path d="m589.74 5.76h8.48v8.48h-8.48z" transform="matrix(-.70710678 -.70710678 .70710678 -.70710678 1006.93 433.08)"/><path d="m577.74 5.76h8.48v8.48h-8.48z" transform="matrix(-.70710678 -.70710678 .70710678 -.70710678 986.44 424.6)"/><path d="m517.75 17.75h8.48v8.48h-8.48z" transform="matrix(.70710678 -.70710678 .70710678 .70710678 137.33 371.55)"/><path d="m517.75 5.76h8.48v8.48h-8.48z" transform="matrix(.70710678 -.70710678 .70710678 .70710678 145.82 368.03)"/><path d="m529.75 17.75h8.48v8.48h-8.48z" transform="matrix(.70710678 -.70710678 .70710678 .70710678 140.85 380.03)"/><path d="m529.75 5.76h8.48v8.48h-8.48z" transform="matrix(.70710678 -.70710678 .70710678 .70710678 149.33 376.52)"/><path d="m541.75 17.75h8.48v8.48h-8.48z" transform="matrix(.70710678 -.70710678 .70710678 .70710678 144.36 388.52)"/><path d="m541.75 5.76h8.48v8.48h-8.48z" transform="matrix(.70710678 -.70710678 .70710678 .70710678 152.85 385)"/><path d="m553.75 17.75h8.48v8.48h-8.48z" transform="matrix(.70710678 -.70710678 .70710678 .70710678 147.88 397)"/><path d="m553.75 5.76h8.48v8.48h-8.48z" transform="matrix(.70710678 -.70710678 .70710678 .70710678 156.36 393.49)"/><path d="m565.74 17.75h8.48v8.48h-8.48z" transform="matrix(.70710678 -.70710678 .70710678 .70710678 151.39 405.49)"/><path d="m565.74 5.76h8.48v8.48h-8.48z" transform="matrix(.70710678 -.70710678 .70710678 .70710678 159.88 401.97)"/><circle cx="587.99" cy="83.81" r="3"/><circle cx="587.99" cy="71.99" r="3"/><circle cx="587.99" cy="60" r="3"/><path d="m589.74 113.75h8.48v8.48h-8.48z" transform="matrix(-.70710678 -.70710678 .70710678 -.70710678 930.57 617.43)"/><path d="m577.74 113.75h8.48v8.48h-8.48z" transform="matrix(-.70710678 -.70710678 .70710678 -.70710678 910.08 608.95)"/><path d="m589.74 101.75h8.48v8.48h-8.48z" transform="matrix(-.70710678 -.70710678 .70710678 -.70710678 939.05 596.95)"/><path d="m577.74 101.75h8.48v8.48h-8.48z" transform="matrix(-.70710678 -.70710678 .70710678 -.70710678 918.57 588.47)"/><path d="m589.74 89.75h8.48v8.48h-8.48z" transform="matrix(-.70710678 -.70710678 .70710678 -.70710678 947.53 576.47)"/><path d="m577.74 89.75h8.48v8.48h-8.48z" transform="matrix(-.70710678 -.70710678 .70710678 -.70710678 927.05 567.98)"/><circle cx="587.99" cy="95.99" r="3"/><path d="m13.8 77.75h8.48v8.48h-8.48z" transform="matrix(-.70710678 -.70710678 .70710678 -.70710678 -27.17 148.73)"/><path d="m1.8 77.75h8.48v8.48h-8.48z" transform="matrix(-.70710678 -.70710678 .70710678 -.70710678 -47.66 140.25)"/><circle cx="12.05" cy="83.81" r="3"/><path d="m13.8 89.75h8.48v8.48h-8.48z" transform="matrix(-.70710678 -.70710678 .70710678 -.70710678 -35.66 169.21)"/><path d="m1.8 89.75h8.48v8.48h-8.48z" transform="matrix(-.70710678 -.70710678 .70710678 -.70710678 -56.14 160.73)"/><circle cx="12.05" cy="107.99" r="3"/><circle cx="587.99" cy="48" r="3"/><circle cx="587.99" cy="36" r="3"/><circle cx="587.99" cy="24" r="3"/><circle cx="587.99" cy="12" r="3"/><circle cx="575.99" cy="12" r="3"/><circle cx="563.99" cy="12" r="3"/><circle cx="551.99" cy="12" r="3"/><circle cx="539.99" cy="12" r="3"/><circle cx="527.99" cy="12" r="3"/><circle cx="515.99" cy="12" r="3"/><path d="m457.75 17.75h8.48v8.48h-8.48z" transform="matrix(.70710678 -.70710678 .70710678 .70710678 119.76 329.12)"/><path d="m457.75 5.76h8.48v8.48h-8.48z" transform="matrix(.70710678 -.70710678 .70710678 .70710678 128.25 325.61)"/><path d="m469.75 17.75h8.48v8.48h-8.48z" transform="matrix(.70710678 -.70710678 .70710678 .70710678 123.28 337.61)"/><path d="m469.75 5.76h8.48v8.48h-8.48z" transform="matrix(.70710678 -.70710678 .70710678 .70710678 131.76 334.09)"/><path d="m481.75 17.75h8.48v8.48h-8.48z" transform="matrix(.70710678 -.70710678 .70710678 .70710678 126.79 346.09)"/><path d="m481.75 5.76h8.48v8.48h-8.48z" transform="matrix(.70710678 -.70710678 .70710678 .70710678 135.27 342.58)"/><path d="m493.75 17.75h8.48v8.48h-8.48z" transform="matrix(.70710678 -.70710678 .70710678 .70710678 130.3 354.58)"/><path d="m493.75 5.76h8.48v8.48h-8.48z" transform="matrix(.70710678 -.70710678 .70710678 .70710678 138.79 351.06)"/><path d="m505.75 17.75h8.48v8.48h-8.48z" transform="matrix(.70710678 -.70710678 .70710678 .70710678 133.82 363.06)"/><path d="m505.75 5.76h8.48v8.48h-8.48z" transform="matrix(.70710678 -.70710678 .70710678 .70710678 142.3 359.55)"/><circle cx="503.99" cy="12" r="3"/><circle cx="491.99" cy="12" r="3"/><circle cx="479.99" cy="12" r="3"/><circle cx="467.99" cy="12" r="3"/><circle cx="456" cy="12" r="3"/><path d="m445.75 17.75h8.48v8.48h-8.48z" transform="matrix(.70710678 -.70710678 .70710678 .70710678 116.25 320.64)"/><path d="m445.75 5.76h8.48v8.48h-8.48z" transform="matrix(.70710678 -.70710678 .70710678 .70710678 124.73 317.13)"/><circle cx="444" cy="12" r="3"/><path d="m385.76 17.75h8.48v8.48h-8.48z" transform="matrix(.70710678 -.70710678 .70710678 .70710678 98.67 278.22)"/><path d="m385.76 5.76h8.48v8.48h-8.48z" transform="matrix(.70710678 -.70710678 .70710678 .70710678 107.16 274.7)"/><path d="m397.76 17.75h8.48v8.48h-8.48z" transform="matrix(.70710678 -.70710678 .70710678 .70710678 102.19 286.7)"/><path d="m397.76 5.76h8.48v8.48h-8.48z" transform="matrix(.70710678 -.70710678 .70710678 .70710678 110.67 283.19)"/><path d="m409.76 17.75h8.48v8.48h-8.48z" transform="matrix(.70710678 -.70710678 .70710678 .70710678 105.7 295.19)"/><path d="m409.76 5.76h8.48v8.48h-8.48z" transform="matrix(.70710678 -.70710678 .70710678 .70710678 114.19 291.67)"/><path d="m421.76 17.75h8.48v8.48h-8.48z" transform="matrix(.70710678 -.70710678 .70710678 .70710678 109.22 303.67)"/><path d="m421.76 5.76h8.48v8.48h-8.48z" transform="matrix(.70710678 -.70710678 .70710678 .70710678 117.7 300.16)"/><path d="m433.75 17.75h8.48v8.48h-8.48z" transform="matrix(.70710678 -.70710678 .70710678 .70710678 112.73 312.16)"/><path d="m433.75 5.76h8.48v8.48h-8.48z" transform="matrix(.70710678 -.70710678 .70710678 .70710678 121.22 308.64)"/><circle cx="432" cy="12" r="3"/><circle cx="420" cy="12" r="3"/><circle cx="408" cy="12" r="3"/><circle cx="396" cy="12" r="3"/><circle cx="384" cy="12" r="3"/><path d="m337.76 17.75h8.48v8.48h-8.48z" transform="matrix(.70710678 -.70710678 .70710678 .70710678 84.62 244.28)"/><path d="m337.76 5.76h8.48v8.48h-8.48z" transform="matrix(.70710678 -.70710678 .70710678 .70710678 93.1 240.76)"/><path d="m349.76 17.75h8.48v8.48h-8.48z" transform="matrix(.70710678 -.70710678 .70710678 .70710678 88.13 252.76)"/><path d="m349.76 5.76h8.48v8.48h-8.48z" transform="matrix(.70710678 -.70710678 .70710678 .70710678 96.62 249.25)"/><path d="m361.76 17.75h8.48v8.48h-8.48z" transform="matrix(.70710678 -.70710678 .70710678 .70710678 91.65 261.25)"/><path d="m361.76 5.76h8.48v8.48h-8.48z" transform="matrix(.70710678 -.70710678 .70710678 .70710678 100.13 257.73)"/><path d="m373.76 17.75h8.48v8.48h-8.48z" transform="matrix(.70710678 -.70710678 .70710678 .70710678 95.16 269.73)"/><path d="m373.76 5.76h8.48v8.48h-8.48z" transform="matrix(.70710678 -.70710678 .70710678 .70710678 103.64 266.22)"/><circle cx="372" cy="12" r="3"/><circle cx="360" cy="12" r="3"/><circle cx="348" cy="12" r="3"/><circle cx="336" cy="12" r="3"/><path d="m277.77 17.75h8.48v8.48h-8.48z" transform="matrix(.70710678 -.70710678 .70710678 .70710678 67.04 201.86)"/><path d="m277.77 5.76h8.48v8.48h-8.48z" transform="matrix(.70710678 -.70710678 .70710678 .70710678 75.53 198.34)"/><path d="m289.77 17.75h8.48v8.48h-8.48z" transform="matrix(.70710678 -.70710678 .70710678 .70710678 70.56 210.34)"/><path d="m289.77 5.76h8.48v8.48h-8.48z" transform="matrix(.70710678 -.70710678 .70710678 .70710678 79.04 206.83)"/><path d="m301.76 17.75h8.48v8.48h-8.48z" transform="matrix(.70710678 -.70710678 .70710678 .70710678 74.07 218.82)"/><path d="m301.76 5.76h8.48v8.48h-8.48z" transform="matrix(.70710678 -.70710678 .70710678 .70710678 82.56 215.31)"/><path d="m313.76 17.75h8.48v8.48h-8.48z" transform="matrix(.70710678 -.70710678 .70710678 .70710678 77.59 227.31)"/><path d="m313.76 5.76h8.48v8.48h-8.48z" transform="matrix(.70710678 -.70710678 .70710678 .70710678 86.07 223.79)"/><path d="m325.76 17.75h8.48v8.48h-8.48z" transform="matrix(.70710678 -.70710678 .70710678 .70710678 81.1 235.79)"/><path d="m325.76 5.76h8.48v8.48h-8.48z" transform="matrix(.70710678 -.70710678 .70710678 .70710678 89.59 232.28)"/><circle cx="324.01" cy="12" r="3"/><circle cx="312.01" cy="12" r="3"/><circle cx="300.01" cy="12" r="3"/><circle cx="288.01" cy="12" r="3"/><circle cx="276.01" cy="12" r="3"/><path d="m265.77 17.75h8.48v8.48h-8.48z" transform="matrix(.70710678 -.70710678 .70710678 .70710678 63.53 193.37)"/><path d="m265.77 5.76h8.48v8.48h-8.48z" transform="matrix(.70710678 -.70710678 .70710678 .70710678 72.01 189.86)"/><circle cx="264.01" cy="12" r="3"/><path d="m205.77 17.75h8.48v8.48h-8.48z" transform="matrix(.70710678 -.70710678 .70710678 .70710678 45.96 150.95)"/><path d="m205.77 5.76h8.48v8.48h-8.48z" transform="matrix(.70710678 -.70710678 .70710678 .70710678 54.44 147.43)"/><path d="m217.77 17.75h8.48v8.48h-8.48z" transform="matrix(.70710678 -.70710678 .70710678 .70710678 49.47 159.43)"/><path d="m217.77 5.76h8.48v8.48h-8.48z" transform="matrix(.70710678 -.70710678 .70710678 .70710678 57.96 155.92)"/><path d="m229.77 17.75h8.48v8.48h-8.48z" transform="matrix(.70710678 -.70710678 .70710678 .70710678 52.99 167.92)"/><path d="m229.77 5.76h8.48v8.48h-8.48z" transform="matrix(.70710678 -.70710678 .70710678 .70710678 61.47 164.4)"/><path d="m241.77 17.75h8.48v8.48h-8.48z" transform="matrix(.70710678 -.70710678 .70710678 .70710678 56.5 176.4)"/><path d="m241.77 5.76h8.48v8.48h-8.48z" transform="matrix(.70710678 -.70710678 .70710678 .70710678 64.99 172.89)"/><path d="m253.77 17.75h8.48v8.48h-8.48z" transform="matrix(.70710678 -.70710678 .70710678 .70710678 60.02 184.89)"/><path d="m253.77 5.76h8.48v8.48h-8.48z" transform="matrix(.70710678 -.70710678 .70710678 .70710678 68.5 181.37)"/><circle cx="252.01" cy="12" r="3"/><circle cx="240.01" cy="12" r="3"/><circle cx="228.01" cy="12" r="3"/><circle cx="216.01" cy="12" r="3"/><path d="m181.77 17.75h8.48v8.48h-8.48z" transform="matrix(.70710678 -.70710678 .70710678 .70710678 38.93 133.98)"/><path d="m181.77 5.76h8.48v8.48h-8.48z" transform="matrix(.70710678 -.70710678 .70710678 .70710678 47.41 130.46)"/><path d="m193.77 17.75h8.48v8.48h-8.48z" transform="matrix(.70710678 -.70710678 .70710678 .70710678 42.44 142.46)"/><path d="m193.77 5.76h8.48v8.48h-8.48z" transform="matrix(.70710678 -.70710678 .70710678 .70710678 50.93 138.95)"/><circle cx="192.02" cy="12" r="3"/><circle cx="180.02" cy="12" r="3"/><path d="m169.77 17.75h8.48v8.48h-8.48z" transform="matrix(.70710678 -.70710678 .70710678 .70710678 35.41 125.49)"/><path d="m169.77 5.76h8.48v8.48h-8.48z" transform="matrix(.70710678 -.70710678 .70710678 .70710678 43.9 121.98)"/><circle cx="168.02" cy="12" r="3"/><path d="m109.78 17.75h8.48v8.48h-8.48z" transform="matrix(.70710678 -.70710678 .70710678 .70710678 17.84 83.07)"/><path d="m109.78 5.76h8.48v8.48h-8.48z" transform="matrix(.70710678 -.70710678 .70710678 .70710678 26.33 79.56)"/><path d="m121.78 17.75h8.48v8.48h-8.48z" transform="matrix(.70710678 -.70710678 .70710678 .70710678 21.36 91.55)"/><path d="m121.78 5.76h8.48v8.48h-8.48z" transform="matrix(.70710678 -.70710678 .70710678 .70710678 29.84 88.04)"/><path d="m133.78 17.75h8.48v8.48h-8.48z" transform="matrix(.70710678 -.70710678 .70710678 .70710678 24.87 100.04)"/><path d="m133.78 5.76h8.48v8.48h-8.48z" transform="matrix(.70710678 -.70710678 .70710678 .70710678 33.36 96.52)"/><path d="m145.78 17.75h8.48v8.48h-8.48z" transform="matrix(.70710678 -.70710678 .70710678 .70710678 28.39 108.52)"/><path d="m145.78 5.76h8.48v8.48h-8.48z" transform="matrix(.70710678 -.70710678 .70710678 .70710678 36.87 105.01)"/><path d="m157.78 17.75h8.48v8.48h-8.48z" transform="matrix(.70710678 -.70710678 .70710678 .70710678 31.9 117.01)"/><path d="m157.78 5.76h8.48v8.48h-8.48z" transform="matrix(.70710678 -.70710678 .70710678 .70710678 40.38 113.49)"/><circle cx="156.02" cy="12" r="3"/><circle cx="144.02" cy="12" r="3"/><circle cx="132.02" cy="12" r="3"/><circle cx="120.02" cy="12" r="3"/><path d="m85.74 17.75h8.48v8.48h-8.48z" transform="matrix(.70710678 -.70710678 .70710678 .70710678 10.8 66.07)"/><path d="m85.74 5.76h8.48v8.48h-8.48z" transform="matrix(.70710678 -.70710678 .70710678 .70710678 19.29 62.56)"/><path d="m97.74 17.75h8.48v8.48h-8.48z" transform="matrix(.70710678 -.70710678 .70710678 .70710678 14.31 74.55)"/><path d="m97.74 5.76h8.48v8.48h-8.48z" transform="matrix(.70710678 -.70710678 .70710678 .70710678 22.8 71.04)"/><circle cx="107.98" cy="12" r="3"/><circle cx="95.98" cy="12" r="3"/><circle cx="204.01" cy="12" r="3"/><path d="m73.75 5.76h8.48v8.48h-8.48z" transform="matrix(-.70710678 .70710678 -.70710678 -.70710678 140.21 -42.08)"/><path d="m73.75 17.75h8.48v8.48h-8.48z" transform="matrix(-.70710678 .70710678 -.70710678 -.70710678 148.7 -21.6)"/><path d="m61.75 5.76h8.48v8.48h-8.48z" transform="matrix(-.70710678 .70710678 -.70710678 -.70710678 119.73 -33.6)"/><path d="m61.75 17.75h8.48v8.48h-8.48z" transform="matrix(-.70710678 .70710678 -.70710678 -.70710678 128.21 -13.11)"/><path d="m49.75 5.76h8.48v8.48h-8.48z" transform="matrix(-.70710678 .70710678 -.70710678 -.70710678 99.25 -25.11)"/><path d="m49.75 17.75h8.48v8.48h-8.48z" transform="matrix(-.70710678 .70710678 -.70710678 -.70710678 107.73 -4.63)"/><path d="m37.75 5.76h8.48v8.48h-8.48z" transform="matrix(-.70710678 .70710678 -.70710678 -.70710678 78.76 -16.63)"/><path d="m37.75 17.75h8.48v8.48h-8.48z" transform="matrix(-.70710678 .70710678 -.70710678 -.70710678 87.25 3.86)"/><path d="m25.76 5.76h8.48v8.48h-8.48z" transform="matrix(-.70710678 .70710678 -.70710678 -.70710678 58.28 -8.14)"/><path d="m25.76 17.75h8.48v8.48h-8.48z" transform="matrix(-.70710678 .70710678 -.70710678 -.70710678 66.76 12.34)"/><path d="m13.76 5.76h8.48v8.48h-8.48z" transform="matrix(-.70710678 .70710678 -.70710678 -.70710678 37.79 .34)"/><path d="m13.76 17.75h8.48v8.48h-8.48z" transform="matrix(-.70710678 .70710678 -.70710678 -.70710678 46.28 20.83)"/><path d="m1.76 5.76h8.48v8.48h-8.48z" transform="matrix(-.70710678 .70710678 -.70710678 -.70710678 17.31 8.83)"/><path d="m1.76 17.75h8.48v8.48h-8.48z" transform="matrix(-.70710678 .70710678 -.70710678 -.70710678 25.8 29.31)"/><path d="m13.76 65.75h8.48v8.48h-8.48z" transform="matrix(-.70710678 -.70710678 .70710678 -.70710678 -18.77 128.21)"/><path d="m1.76 65.75h8.48v8.48h-8.48z" transform="matrix(-.70710678 -.70710678 .70710678 -.70710678 -39.25 119.73)"/><path d="m13.76 53.75h8.48v8.48h-8.48z" transform="matrix(-.70710678 -.70710678 .70710678 -.70710678 -10.28 107.73)"/><path d="m1.76 53.75h8.48v8.48h-8.48z" transform="matrix(-.70710678 -.70710678 .70710678 -.70710678 -30.77 99.25)"/><path d="m13.76 41.75h8.48v8.48h-8.48z" transform="matrix(-.70710678 -.70710678 .70710678 -.70710678 -1.8 87.25)"/><path d="m1.76 41.75h8.48v8.48h-8.48z" transform="matrix(-.70710678 -.70710678 .70710678 -.70710678 -22.28 78.76)"/><path d="m13.76 29.75h8.48v8.48h-8.48z" transform="matrix(-.70710678 -.70710678 .70710678 -.70710678 6.69 66.76)"/><path d="m1.76 29.75h8.48v8.48h-8.48z" transform="matrix(-.70710678 -.70710678 .70710678 -.70710678 -13.8 58.28)"/><circle cx="83.81" cy="12" r="3"/><circle cx="71.99" cy="12" r="3"/><circle cx="60" cy="12" r="3"/><circle cx="48" cy="12" r="3"/><circle cx="36" cy="12" r="3"/><circle cx="24" cy="12" r="3"/><circle cx="12.05" cy="12.04" r="3"/><circle cx="12" cy="24" r="3"/><circle cx="12" cy="36" r="3"/><circle cx="12" cy="48" r="3"/><circle cx="12" cy="60" r="3"/><circle cx="12" cy="71.99" r="3"/></g></svg>