<svg height="222.84" viewBox="0 0 600 222.84" width="600" xmlns="http://www.w3.org/2000/svg"><g fill="#fff"><path d="m2.51 145.19h12.12v12.12h-12.12z" transform="matrix(.70710678 -.70710678 .70710678 .70710678 -104.44 44.78)"/><path d="m2.51 179.52h12.12v12.12h-12.12z" transform="matrix(.70710678 -.70710678 .70710678 .70710678 -128.72 54.83)"/><path d="m8.57 159.87-8.57 8.57 8.57 8.56 8.57-8.57zm0 11.55a3 3 0 1 1 3-3 3 3 0 0 1 -3 3z" transform="translate(0 -5.58)"/><path d="m8.57 194.15-8.57 8.56 8.57 8.57 8.57-8.57zm0 11.55a3 3 0 1 1 3-3 3 3 0 0 1 -3 3z" transform="translate(0 -5.58)"/><path d="m36.79 213.79h12.12v12.12h-12.12z" transform="matrix(-.70710678 -.70710678 .70710678 -.70710678 -82.3 400.03)"/><path d="m25.71 211.28-8.57 8.57 8.57 8.57 8.57-8.57zm0 11.55a3 3 0 1 1 3-3 3 3 0 0 1 -3 3z" transform="translate(0 -5.58)"/><path d="m71.08 213.79h12.12v12.12h-12.12z" transform="matrix(-.70710678 -.70710678 .70710678 -.70710678 -23.78 424.27)"/><path d="m60 211.28-8.57 8.57 8.57 8.57 8.57-8.57zm0 11.55a3 3 0 1 1 3-3 3 3 0 0 1 -3 3z" transform="translate(0 -5.58)"/><path d="m585.37 145.19h12.12v12.12h-12.12z" transform="matrix(.70710678 -.70710678 .70710678 .70710678 66.28 456.92)"/><path d="m585.37 179.52h12.12v12.12h-12.12z" transform="matrix(.70710678 -.70710678 .70710678 .70710678 42 466.98)"/><path d="m591.43 159.87-8.57 8.57 8.57 8.57 8.57-8.57zm0 11.55a3 3 0 1 1 3-3 3 3 0 0 1 -3 3z" transform="translate(0 -5.58)"/><path d="m591.43 194.15-8.57 8.57 8.57 8.57 8.57-8.57zm0 11.55a3 3 0 1 1 3-3 3 3 0 0 1 -3 3z" transform="translate(0 -5.58)"/><path d="m516.96 213.79h12.12v12.12h-12.12z" transform="matrix(-.70710678 -.70710678 .70710678 -.70710678 737.4 739.56)"/><path d="m540.16 211.28-8.57 8.57 8.57 8.57 8.57-8.57zm0 11.55a3 3 0 1 1 3-3 3 3 0 0 1 -3 3z" transform="translate(0 -5.58)"/><path d="m551.24 213.79h12.12v12.12h-12.12z" transform="matrix(-.70710678 -.70710678 .70710678 -.70710678 795.91 763.8)"/><path d="m574.44 211.28-8.57 8.57 8.57 8.57 8.57-8.57zm0 11.55a3 3 0 1 1 3-3 3 3 0 0 1 -3 3z" transform="translate(0 -5.58)"/><path d="m2.51 42.36h12.12v12.12h-12.12z" transform="matrix(.70710678 -.70710678 .70710678 .70710678 -31.73 14.66)"/><path d="m8.57 22.71-8.57 8.57 8.57 8.57 8.57-8.57zm0 11.55a3 3 0 1 1 3-3 3 3 0 0 1 -3 3z" transform="translate(0 -5.58)"/><path d="m2.51 76.63h12.12v12.12h-12.12z" transform="matrix(.70710678 -.70710678 .70710678 .70710678 -55.96 24.7)"/><path d="m8.57 57-8.57 8.55 8.57 8.57 8.57-8.57zm0 11.55a3 3 0 1 1 3-3 3 3 0 0 1 -3 2.98z" transform="translate(0 -5.58)"/><path d="m36.79 8.09h12.12v12.12h-12.12z" transform="matrix(-.70710678 -.70710678 .70710678 -.70710678 63.15 48.88)"/><path d="m25.71 5.58-8.57 8.57 8.57 8.57 8.57-8.57zm0 11.55a3 3 0 1 1 3-3 3 3 0 0 1 -3 3z" transform="translate(0 -5.58)"/><path d="m71.08 8.09h12.12v12.12h-12.12z" transform="matrix(-.70710678 -.70710678 .70710678 -.70710678 121.67 73.12)"/><path d="m60 5.58-8.57 8.57 8.57 8.57 8.57-8.57zm0 11.55a3 3 0 1 1 3-3 3 3 0 0 1 -3 3z" transform="translate(0 -5.58)"/><path d="m585.37 42.36h12.12v12.12h-12.12z" transform="matrix(.70710678 -.70710678 .70710678 .70710678 138.99 426.81)"/><path d="m591.43 22.71-8.57 8.57 8.57 8.57 8.57-8.57zm0 11.55a3 3 0 1 1 3-3 3 3 0 0 1 -3 3z" transform="translate(0 -5.58)"/><path d="m585.37 76.63h12.12v12.12h-12.12z" transform="matrix(.70710678 -.70710678 .70710678 .70710678 114.75 436.85)"/><path d="m591.43 57-8.57 8.57 8.57 8.57 8.57-8.59zm0 11.55a3 3 0 1 1 3-3 3 3 0 0 1 -3 2.98z" transform="translate(0 -5.58)"/><path d="m516.96 8.09h12.12v12.12h-12.12z" transform="matrix(-.70710678 -.70710678 .70710678 -.70710678 882.85 388.41)"/><path d="m540.16 5.58-8.57 8.57 8.57 8.57 8.57-8.57zm0 11.55a3 3 0 1 1 3-3 3 3 0 0 1 -3 3z" transform="translate(0 -5.58)"/><path d="m551.24 8.09h12.12v12.12h-12.12z" transform="matrix(-.70710678 -.70710678 .70710678 -.70710678 941.36 412.65)"/><path d="m574.44 5.58-8.57 8.57 8.57 8.57 8.56-8.57zm0 11.55a3 3 0 1 1 3-3 3 3 0 0 1 -3 3z" transform="translate(0 -5.58)"/></g></svg>