<svg xmlns="http://www.w3.org/2000/svg" xmlns:xlink="http://www.w3.org/1999/xlink" width="710" height="540" viewBox="0 0 710 540"><defs><style>.a{fill:none;}.b{fill:#ed3838;}.c{fill:#fff;}.d{clip-path:url(#a);}</style><clipPath id="a"><rect class="a" x="140.05" y="121.74" width="429.9" height="296.53"/></clipPath></defs><title>Untitled-1</title><polyline class="b" points="0 0 0 540 710 540 710 0"/><polygon class="c" points="212.6 121.73 207.02 127.46 212.6 133.18 218.18 127.46 212.6 121.73"/><polygon class="c" points="207.02 138.91 212.6 133.18 218.18 138.91 212.6 144.63 207.02 138.91"/><polygon class="c" points="201.44 121.73 195.86 127.46 201.44 133.18 207.02 127.46 201.44 121.73"/><polygon class="c" points="195.86 138.91 201.44 133.18 207.02 138.91 201.44 144.63 195.86 138.91"/><polygon class="c" points="190.28 121.73 184.69 127.46 190.28 133.18 195.86 127.46 190.28 121.73"/><polygon class="c" points="184.69 138.91 190.28 133.18 195.86 138.91 190.28 144.63 184.69 138.91"/><polygon class="c" points="179.11 121.73 173.53 127.46 179.11 133.18 184.7 127.46 179.11 121.73"/><polygon class="c" points="173.53 138.91 179.11 133.18 184.69 138.91 179.11 144.63 173.53 138.91"/><polygon class="c" points="167.95 121.73 162.37 127.46 167.95 133.18 173.53 127.46 167.95 121.73"/><polygon class="c" points="162.37 138.91 167.95 133.18 173.53 138.91 167.95 144.63 162.37 138.91"/><polygon class="c" points="156.79 121.73 151.21 127.46 156.79 133.18 162.37 127.46 156.79 121.73"/><polygon class="c" points="151.21 138.91 156.79 133.18 162.37 138.91 156.79 144.63 151.21 138.91"/><polygon class="c" points="145.63 121.73 140.05 127.46 145.63 133.18 151.21 127.46 145.63 121.73"/><polygon class="c" points="140.05 138.91 145.63 144.63 151.21 138.91 145.63 133.18 140.05 138.91"/><g class="d"><path class="c" d="M207,136a2.86,2.86,0,1,0-2.79-2.86A2.83,2.83,0,0,0,207,136"/><path class="c" d="M195.86,136a2.86,2.86,0,1,0-2.79-2.86,2.83,2.83,0,0,0,2.79,2.86"/><path class="c" d="M184.7,136a2.86,2.86,0,1,0-2.79-2.86A2.83,2.83,0,0,0,184.7,136"/><path class="c" d="M173.53,136a2.86,2.86,0,1,0-2.79-2.86,2.83,2.83,0,0,0,2.79,2.86"/><path class="c" d="M162.37,136a2.86,2.86,0,1,0-2.79-2.86,2.83,2.83,0,0,0,2.79,2.86"/><path class="c" d="M151.25,136.09a2.86,2.86,0,1,0-2.79-2.86,2.83,2.83,0,0,0,2.79,2.86"/><path class="c" d="M151.21,147.5a2.86,2.86,0,1,0-2.79-2.86,2.83,2.83,0,0,0,2.79,2.86"/></g><polygon class="c" points="156.83 190.43 162.41 196.15 156.83 201.88 151.25 196.15 156.83 190.43"/><polygon class="c" points="140.09 196.15 145.67 201.88 151.25 196.15 145.67 190.43 140.09 196.15"/><g class="d"><path class="c" d="M148.46,201.7a2.79,2.79,0,1,0,2.79-2.86,2.83,2.83,0,0,0-2.79,2.86"/></g><polygon class="c" points="156.79 178.98 162.37 184.71 156.79 190.43 151.21 184.71 156.79 178.98"/><polygon class="c" points="140.05 184.7 145.63 190.43 151.21 184.7 145.63 178.98 140.05 184.7"/><polygon class="c" points="156.79 167.53 162.37 173.26 156.79 178.98 151.21 173.26 156.79 167.53"/><polygon class="c" points="140.05 173.25 145.63 178.98 151.21 173.25 145.63 167.53 140.05 173.25"/><polygon class="c" points="156.79 156.08 162.37 161.81 156.79 167.53 151.21 161.81 156.79 156.08"/><polygon class="c" points="140.05 161.81 145.63 167.53 151.21 161.81 145.63 156.08 140.05 161.81"/><polygon class="c" points="156.79 144.63 162.37 150.36 156.79 156.08 151.21 150.36 156.79 144.63"/><polygon class="c" points="140.05 150.36 145.63 156.08 151.21 150.36 145.63 144.63 140.05 150.36"/><g class="d"><path class="c" d="M151.21,158.94a2.86,2.86,0,1,0-2.79-2.86,2.83,2.83,0,0,0,2.79,2.86"/><path class="c" d="M151.21,170.39a2.86,2.86,0,1,0-2.79-2.86,2.83,2.83,0,0,0,2.79,2.86"/><path class="c" d="M151.21,181.84a2.86,2.86,0,1,0-2.79-2.86,2.83,2.83,0,0,0,2.79,2.86"/><path class="c" d="M151.21,193.29a2.86,2.86,0,1,0-2.79-2.86,2.83,2.83,0,0,0,2.79,2.86"/></g><polygon class="c" points="156.83 247.28 162.41 253.01 156.83 258.73 151.25 253.01 156.83 247.28"/><polygon class="c" points="156.83 258.73 162.41 264.46 156.83 270.18 151.25 264.46 156.83 258.73"/><polygon class="c" points="156.83 270 162.41 275.73 156.83 281.45 151.25 275.73 156.83 270"/><polygon class="c" points="140.09 253.01 145.67 258.73 151.25 253.01 145.67 247.28 140.09 253.01"/><polygon class="c" points="140.09 264.45 145.67 270.18 151.25 264.45 145.67 258.73 140.09 264.45"/><polygon class="c" points="140.09 275.73 145.67 281.45 151.25 275.73 145.67 270 140.09 275.73"/><g class="d"><path class="c" d="M148.46,258.55a2.79,2.79,0,1,0,2.79-2.86,2.83,2.83,0,0,0-2.79,2.86"/><path class="c" d="M148.46,270a2.79,2.79,0,1,0,2.79-2.86,2.83,2.83,0,0,0-2.79,2.86"/></g><polygon class="c" points="156.79 235.83 162.37 241.56 156.79 247.28 151.21 241.56 156.79 235.83"/><polygon class="c" points="140.05 241.56 145.63 247.28 151.21 241.56 145.63 235.83 140.05 241.56"/><polygon class="c" points="156.79 224.38 162.37 230.11 156.79 235.83 151.21 230.11 156.79 224.38"/><polygon class="c" points="140.05 230.11 145.63 235.83 151.21 230.11 145.63 224.38 140.05 230.11"/><polygon class="c" points="156.79 212.94 162.37 218.66 156.79 224.38 151.21 218.66 156.79 212.94"/><polygon class="c" points="140.05 218.66 145.63 224.38 151.21 218.66 145.63 212.93 140.05 218.66"/><polygon class="c" points="156.79 201.49 162.37 207.21 156.79 212.94 151.21 207.21 156.79 201.49"/><polygon class="c" points="140.05 207.21 145.63 212.94 151.21 207.21 145.63 201.49 140.05 207.21"/><g class="d"><path class="c" d="M151.21,215.8a2.86,2.86,0,1,0-2.79-2.86,2.83,2.83,0,0,0,2.79,2.86"/><path class="c" d="M151.21,227.25a2.86,2.86,0,1,0-2.79-2.86,2.83,2.83,0,0,0,2.79,2.86"/><path class="c" d="M151.21,238.69a2.86,2.86,0,1,0-2.79-2.86,2.83,2.83,0,0,0,2.79,2.86"/><path class="c" d="M151.21,250.14a2.86,2.86,0,1,0-2.79-2.86,2.83,2.83,0,0,0,2.79,2.86"/></g><polygon class="c" points="207.02 412.54 212.6 418.26 218.18 412.54 212.6 406.82 207.02 412.54"/><polygon class="c" points="207.02 401.09 212.6 406.82 218.18 401.09 212.6 395.37 207.02 401.09"/><polygon class="c" points="195.86 412.54 201.44 418.26 207.02 412.54 201.44 406.82 195.86 412.54"/><polygon class="c" points="195.86 401.09 201.44 406.82 207.02 401.09 201.44 395.37 195.86 401.09"/><polygon class="c" points="184.69 412.54 190.28 418.26 195.86 412.54 190.28 406.82 184.69 412.54"/><polygon class="c" points="184.69 401.09 190.28 406.82 195.86 401.09 190.28 395.37 184.69 401.09"/><polygon class="c" points="173.53 412.54 179.11 418.26 184.7 412.54 179.11 406.82 173.53 412.54"/><polygon class="c" points="173.53 401.09 179.11 406.82 184.69 401.09 179.11 395.37 173.53 401.09"/><polygon class="c" points="162.37 412.54 167.95 418.26 173.53 412.54 167.95 406.82 162.37 412.54"/><polygon class="c" points="162.37 401.09 167.95 406.82 173.53 401.09 167.95 395.37 162.37 401.09"/><polygon class="c" points="151.21 412.54 156.79 418.26 162.37 412.54 156.79 406.82 151.21 412.54"/><polygon class="c" points="151.21 401.09 156.79 406.82 162.37 401.09 156.79 395.37 151.21 401.09"/><polygon class="c" points="140.05 412.54 145.63 418.26 151.21 412.54 145.63 406.82 140.05 412.54"/><polygon class="c" points="140.05 401.09 145.63 406.82 151.21 401.09 145.63 395.37 140.05 401.09"/><g class="d"><path class="c" d="M218,404a2.86,2.86,0,1,1-2.79,2.86A2.83,2.83,0,0,1,218,404"/><path class="c" d="M207,404a2.86,2.86,0,1,1-2.79,2.86A2.83,2.83,0,0,1,207,404"/><path class="c" d="M195.86,404a2.86,2.86,0,1,1-2.79,2.86,2.83,2.83,0,0,1,2.79-2.86"/><path class="c" d="M184.7,404a2.86,2.86,0,1,1-2.79,2.86A2.83,2.83,0,0,1,184.7,404"/><path class="c" d="M173.53,404a2.86,2.86,0,1,1-2.79,2.86,2.83,2.83,0,0,1,2.79-2.86"/><path class="c" d="M162.37,404a2.86,2.86,0,1,1-2.79,2.86,2.83,2.83,0,0,1,2.79-2.86"/><path class="c" d="M151.25,403.91a2.86,2.86,0,1,1-2.79,2.86,2.83,2.83,0,0,1,2.79-2.86"/><path class="c" d="M151.21,392.5a2.86,2.86,0,1,1-2.79,2.86,2.83,2.83,0,0,1,2.79-2.86"/></g><polygon class="c" points="156.83 349.57 162.41 343.85 156.83 338.12 151.25 343.85 156.83 349.57"/><polygon class="c" points="140.09 343.85 145.67 349.57 151.25 343.85 145.67 338.12 140.09 343.85"/><g class="d"><path class="c" d="M148.46,338.3a2.79,2.79,0,1,1,2.79,2.86,2.83,2.83,0,0,1-2.79-2.86"/></g><polygon class="c" points="156.79 361.02 162.37 355.3 156.79 349.57 151.21 355.3 156.79 361.02"/><polygon class="c" points="140.05 355.3 145.63 361.02 151.21 355.3 145.63 349.57 140.05 355.3"/><polygon class="c" points="156.79 372.47 162.37 366.74 156.79 361.02 151.21 366.74 156.79 372.47"/><polygon class="c" points="140.05 366.75 145.63 372.47 151.21 366.75 145.63 361.02 140.05 366.75"/><polygon class="c" points="156.79 383.92 162.37 378.19 156.79 372.47 151.21 378.19 156.79 383.92"/><polygon class="c" points="140.05 378.19 145.63 383.92 151.21 378.19 145.63 372.47 140.05 378.19"/><polygon class="c" points="156.79 395.37 162.37 389.64 156.79 383.92 151.21 389.64 156.79 395.37"/><polygon class="c" points="140.05 389.64 145.63 395.37 151.21 389.64 145.63 383.92 140.05 389.64"/><g class="d"><path class="c" d="M151.21,381.06a2.86,2.86,0,1,1-2.79,2.86,2.83,2.83,0,0,1,2.79-2.86"/><path class="c" d="M151.21,369.61a2.86,2.86,0,1,1-2.79,2.86,2.83,2.83,0,0,1,2.79-2.86"/><path class="c" d="M151.21,358.16a2.86,2.86,0,1,1-2.79,2.86,2.83,2.83,0,0,1,2.79-2.86"/><path class="c" d="M151.21,346.71a2.86,2.86,0,1,1-2.79,2.86,2.83,2.83,0,0,1,2.79-2.86"/></g><polygon class="c" points="156.83 292.72 162.41 286.99 156.83 281.27 151.25 286.99 156.83 292.72"/><polygon class="c" points="140.09 286.99 145.67 292.72 151.25 286.99 145.67 281.27 140.09 286.99"/><g class="d"><path class="c" d="M148.46,281.45a2.79,2.79,0,1,1,2.79,2.86,2.83,2.83,0,0,1-2.79-2.86"/></g><polygon class="c" points="156.79 304.17 162.37 298.44 156.79 292.72 151.21 298.44 156.79 304.17"/><polygon class="c" points="140.05 298.44 145.63 304.17 151.21 298.44 145.63 292.72 140.05 298.44"/><polygon class="c" points="156.79 315.62 162.37 309.89 156.79 304.17 151.21 309.89 156.79 315.62"/><polygon class="c" points="140.05 309.89 145.63 315.62 151.21 309.89 145.63 304.17 140.05 309.89"/><polygon class="c" points="156.79 327.06 162.37 321.34 156.79 315.62 151.21 321.34 156.79 327.06"/><polygon class="c" points="140.05 321.34 145.63 327.06 151.21 321.34 145.63 315.62 140.05 321.34"/><polygon class="c" points="156.79 338.51 162.37 332.79 156.79 327.06 151.21 332.79 156.79 338.51"/><polygon class="c" points="140.05 332.79 145.63 338.51 151.21 332.79 145.63 327.06 140.05 332.79"/><g class="d"><path class="c" d="M151.21,324.2a2.86,2.86,0,1,1-2.79,2.86,2.83,2.83,0,0,1,2.79-2.86"/><path class="c" d="M151.21,312.75a2.86,2.86,0,1,1-2.79,2.86,2.83,2.83,0,0,1,2.79-2.86"/><path class="c" d="M151.21,301.31a2.86,2.86,0,1,1-2.79,2.86,2.83,2.83,0,0,1,2.79-2.86"/><path class="c" d="M151.21,289.86a2.86,2.86,0,1,1-2.79,2.86,2.83,2.83,0,0,1,2.79-2.86"/></g><polygon class="c" points="480.37 127.36 486.1 132.94 491.82 127.36 486.1 121.78 480.37 127.36"/><polygon class="c" points="468.92 127.36 474.65 132.94 480.37 127.36 474.65 121.78 468.92 127.36"/><polygon class="c" points="486.1 144.1 491.82 138.52 486.1 132.94 480.37 138.52 486.1 144.1"/><polygon class="c" points="474.65 144.1 480.37 138.52 474.65 132.94 468.92 138.52 474.65 144.1"/><g class="d"><path class="c" d="M477.47,132.9a2.86,2.86,0,1,1,2.86,2.79,2.83,2.83,0,0,1-2.86-2.79"/><path class="c" d="M466.06,132.94a2.86,2.86,0,1,1,2.86,2.79,2.83,2.83,0,0,1-2.86-2.79"/></g><polygon class="c" points="417.4 121.73 411.68 127.32 417.4 132.9 423.13 127.32 417.4 121.73"/><polygon class="c" points="423.13 138.48 417.4 132.9 411.68 138.48 417.4 144.06 423.13 138.48"/><g class="d"><path class="c" d="M411.86,135.69a2.79,2.79,0,1,1,2.86-2.79,2.83,2.83,0,0,1-2.86,2.79"/></g><polygon class="c" points="423.13 127.36 428.85 132.94 434.57 127.36 428.85 121.78 423.13 127.36"/><polygon class="c" points="434.57 138.52 428.85 132.94 423.13 138.52 428.85 144.1 434.57 138.52"/><polygon class="c" points="434.57 127.36 440.3 132.94 446.02 127.36 440.3 121.78 434.57 127.36"/><polygon class="c" points="446.02 138.52 440.3 132.94 434.57 138.52 440.3 144.1 446.02 138.52"/><polygon class="c" points="446.02 127.36 451.75 132.94 457.47 127.36 451.75 121.78 446.02 127.36"/><polygon class="c" points="457.47 138.52 451.75 132.94 446.02 138.52 451.75 144.1 457.47 138.52"/><polygon class="c" points="457.47 127.36 463.2 132.94 468.92 127.36 463.2 121.78 457.47 127.36"/><polygon class="c" points="468.92 138.52 463.2 132.94 457.47 138.52 463.2 144.1 468.92 138.52"/><g class="d"><path class="c" d="M454.61,132.94a2.86,2.86,0,1,1,2.86,2.79,2.83,2.83,0,0,1-2.86-2.79"/><path class="c" d="M443.16,132.94a2.86,2.86,0,1,1,2.86,2.79,2.83,2.83,0,0,1-2.86-2.79"/><path class="c" d="M431.71,132.94a2.86,2.86,0,1,1,2.86,2.79,2.83,2.83,0,0,1-2.86-2.79"/><path class="c" d="M420.26,132.94a2.86,2.86,0,1,1,2.86,2.79,2.83,2.83,0,0,1-2.86-2.79"/></g><polygon class="c" points="360.55 121.73 354.82 127.32 360.55 132.9 366.27 127.32 360.55 121.73"/><polygon class="c" points="366.27 138.48 360.55 132.9 354.82 138.48 360.55 144.06 366.27 138.48"/><g class="d"><path class="c" d="M355,135.69a2.79,2.79,0,1,1,2.86-2.79,2.83,2.83,0,0,1-2.86,2.79"/></g><polygon class="c" points="366.27 127.36 372 132.94 377.72 127.36 372 121.78 366.27 127.36"/><polygon class="c" points="377.72 138.52 372 132.94 366.27 138.52 372 144.1 377.72 138.52"/><polygon class="c" points="377.72 127.36 383.45 132.94 389.17 127.36 383.45 121.78 377.72 127.36"/><polygon class="c" points="389.17 138.52 383.45 132.94 377.72 138.52 383.45 144.1 389.17 138.52"/><polygon class="c" points="389.17 127.36 394.89 132.94 400.62 127.36 394.89 121.78 389.17 127.36"/><polygon class="c" points="400.62 138.52 394.89 132.94 389.17 138.52 394.89 144.1 400.62 138.52"/><polygon class="c" points="400.62 127.36 406.34 132.94 412.07 127.36 406.34 121.78 400.62 127.36"/><polygon class="c" points="412.07 138.52 406.34 132.94 400.62 138.52 406.34 144.1 412.07 138.52"/><g class="d"><path class="c" d="M397.76,132.94a2.86,2.86,0,1,1,2.86,2.79,2.83,2.83,0,0,1-2.86-2.79"/><path class="c" d="M386.31,132.94a2.86,2.86,0,1,1,2.86,2.79,2.83,2.83,0,0,1-2.86-2.79"/><path class="c" d="M374.86,132.94a2.86,2.86,0,1,1,2.86,2.79,2.83,2.83,0,0,1-2.86-2.79"/><path class="c" d="M363.41,132.94a2.86,2.86,0,1,1,2.86,2.79,2.83,2.83,0,0,1-2.86-2.79"/></g><polygon class="c" points="486.1 407.1 491.82 401.52 486.1 395.94 480.37 401.52 486.1 407.1"/><polygon class="c" points="474.65 407.1 480.37 401.52 474.65 395.94 468.92 401.52 474.65 407.1"/><polygon class="c" points="480.37 412.68 486.1 418.26 491.82 412.68 486.1 407.1 480.37 412.68"/><polygon class="c" points="468.92 412.68 474.65 418.26 480.37 412.68 474.65 407.1 468.92 412.68"/><g class="d"><path class="c" d="M477.47,407.06a2.86,2.86,0,1,1,2.86,2.79,2.83,2.83,0,0,1-2.86-2.79"/><path class="c" d="M466.06,407.1a2.86,2.86,0,1,1,2.86,2.79,2.83,2.83,0,0,1-2.86-2.79"/></g><polygon class="c" points="423.13 401.48 417.4 395.9 411.68 401.48 417.4 407.06 423.13 401.48"/><polygon class="c" points="411.68 412.64 417.4 418.22 423.13 412.64 417.4 407.06 411.68 412.64"/><g class="d"><path class="c" d="M411.86,409.85a2.79,2.79,0,1,1,2.86-2.79,2.83,2.83,0,0,1-2.86,2.79"/></g><polygon class="c" points="434.57 401.52 428.85 395.94 423.13 401.52 428.85 407.1 434.57 401.52"/><polygon class="c" points="423.13 412.68 428.85 418.26 434.57 412.68 428.85 407.1 423.13 412.68"/><polygon class="c" points="446.02 401.52 440.3 395.94 434.57 401.52 440.3 407.1 446.02 401.52"/><polygon class="c" points="434.57 412.68 440.3 418.26 446.02 412.68 440.3 407.1 434.57 412.68"/><polygon class="c" points="457.47 401.52 451.75 395.94 446.02 401.52 451.75 407.1 457.47 401.52"/><polygon class="c" points="446.02 412.68 451.75 418.26 457.47 412.68 451.75 407.1 446.02 412.68"/><polygon class="c" points="468.92 401.52 463.2 395.94 457.47 401.52 463.2 407.1 468.92 401.52"/><polygon class="c" points="457.47 412.68 463.2 418.26 468.92 412.68 463.2 407.1 457.47 412.68"/><g class="d"><path class="c" d="M454.61,407.1a2.86,2.86,0,1,1,2.86,2.79,2.83,2.83,0,0,1-2.86-2.79"/><path class="c" d="M443.16,407.1a2.86,2.86,0,1,1,2.86,2.79,2.83,2.83,0,0,1-2.86-2.79"/><path class="c" d="M431.71,407.1a2.86,2.86,0,1,1,2.86,2.79,2.83,2.83,0,0,1-2.86-2.79"/><path class="c" d="M420.26,407.1a2.86,2.86,0,1,1,2.86,2.79,2.83,2.83,0,0,1-2.86-2.79"/></g><polygon class="c" points="366.27 401.48 360.55 395.9 354.82 401.48 360.55 407.06 366.27 401.48"/><polygon class="c" points="354.82 412.64 360.55 418.22 366.27 412.64 360.55 407.06 354.82 412.64"/><g class="d"><path class="c" d="M355,409.85a2.79,2.79,0,1,1,2.86-2.79,2.83,2.83,0,0,1-2.86,2.79"/></g><polygon class="c" points="377.72 401.52 372 395.94 366.27 401.52 372 407.1 377.72 401.52"/><polygon class="c" points="366.27 412.68 372 418.26 377.72 412.68 372 407.1 366.27 412.68"/><polygon class="c" points="389.17 401.52 383.45 395.94 377.72 401.52 383.45 407.1 389.17 401.52"/><polygon class="c" points="377.72 412.68 383.45 418.26 389.17 412.68 383.45 407.1 377.72 412.68"/><polygon class="c" points="400.62 401.52 394.89 395.94 389.17 401.52 394.89 407.1 400.62 401.52"/><polygon class="c" points="389.17 412.68 394.89 418.26 400.62 412.68 394.89 407.1 389.17 412.68"/><polygon class="c" points="412.07 401.52 406.34 395.94 400.62 401.52 406.34 407.1 412.07 401.52"/><polygon class="c" points="400.62 412.68 406.34 418.26 412.07 412.68 406.34 407.1 400.62 412.68"/><g class="d"><path class="c" d="M397.76,407.1a2.86,2.86,0,1,1,2.86,2.79,2.83,2.83,0,0,1-2.86-2.79"/><path class="c" d="M386.31,407.1a2.86,2.86,0,1,1,2.86,2.79,2.83,2.83,0,0,1-2.86-2.79"/><path class="c" d="M374.86,407.1a2.86,2.86,0,1,1,2.86,2.79,2.83,2.83,0,0,1-2.86-2.79"/><path class="c" d="M363.41,407.1a2.86,2.86,0,1,1,2.86,2.79,2.83,2.83,0,0,1-2.86-2.79"/></g><polygon class="c" points="343.43 127.36 349.16 132.94 354.88 127.36 349.16 121.78 343.43 127.36"/><polygon class="c" points="331.98 127.36 337.71 132.94 343.43 127.36 337.71 121.78 331.98 127.36"/><polygon class="c" points="349.16 144.1 354.88 138.52 349.16 132.94 343.43 138.52 349.16 144.1"/><polygon class="c" points="337.71 144.1 343.43 138.52 337.71 132.94 331.98 138.52 337.71 144.1"/><g class="d"><path class="c" d="M340.53,132.9a2.86,2.86,0,1,1,2.86,2.79,2.83,2.83,0,0,1-2.86-2.79"/><path class="c" d="M329.12,132.94a2.86,2.86,0,1,1,2.86,2.79,2.83,2.83,0,0,1-2.86-2.79"/></g><polygon class="c" points="280.46 121.73 274.74 127.32 280.46 132.9 286.19 127.32 280.46 121.73"/><polygon class="c" points="286.19 138.48 280.46 132.9 274.74 138.48 280.46 144.06 286.19 138.48"/><g class="d"><path class="c" d="M274.92,135.69a2.79,2.79,0,1,1,2.86-2.79,2.83,2.83,0,0,1-2.86,2.79"/></g><polygon class="c" points="286.19 127.36 291.91 132.94 297.63 127.36 291.91 121.78 286.19 127.36"/><polygon class="c" points="297.63 138.52 291.91 132.94 286.19 138.52 291.91 144.1 297.63 138.52"/><polygon class="c" points="297.63 127.36 303.36 132.94 309.08 127.36 303.36 121.78 297.63 127.36"/><polygon class="c" points="309.08 138.52 303.36 132.94 297.63 138.52 303.36 144.1 309.08 138.52"/><polygon class="c" points="309.08 127.36 314.81 132.94 320.53 127.36 314.81 121.78 309.08 127.36"/><polygon class="c" points="320.53 138.52 314.81 132.94 309.08 138.52 314.81 144.1 320.53 138.52"/><polygon class="c" points="320.53 127.36 326.26 132.94 331.98 127.36 326.26 121.78 320.53 127.36"/><polygon class="c" points="331.98 138.52 326.26 132.94 320.53 138.52 326.26 144.1 331.98 138.52"/><g class="d"><path class="c" d="M317.67,132.94a2.86,2.86,0,1,1,2.86,2.79,2.83,2.83,0,0,1-2.86-2.79"/><path class="c" d="M306.22,132.94a2.86,2.86,0,1,1,2.86,2.79,2.83,2.83,0,0,1-2.86-2.79"/><path class="c" d="M294.77,132.94a2.86,2.86,0,1,1,2.86,2.79,2.83,2.83,0,0,1-2.86-2.79"/><path class="c" d="M283.32,132.94a2.86,2.86,0,1,1,2.86,2.79,2.83,2.83,0,0,1-2.86-2.79"/></g><polygon class="c" points="223.61 121.73 217.88 127.32 223.61 132.9 229.33 127.32 223.61 121.73"/><polygon class="c" points="229.33 138.48 223.61 132.9 217.88 138.48 223.61 144.06 229.33 138.48"/><g class="d"><path class="c" d="M218.06,135.69a2.79,2.79,0,1,1,2.86-2.79,2.83,2.83,0,0,1-2.86,2.79"/></g><polygon class="c" points="229.33 127.36 235.06 132.94 240.78 127.36 235.06 121.78 229.33 127.36"/><polygon class="c" points="240.78 138.52 235.06 132.94 229.33 138.52 235.06 144.1 240.78 138.52"/><polygon class="c" points="240.78 127.36 246.51 132.94 252.23 127.36 246.51 121.78 240.78 127.36"/><polygon class="c" points="252.23 138.52 246.51 132.94 240.78 138.52 246.51 144.1 252.23 138.52"/><polygon class="c" points="252.23 127.36 257.96 132.94 263.68 127.36 257.96 121.78 252.23 127.36"/><polygon class="c" points="263.68 138.52 257.96 132.94 252.23 138.52 257.96 144.1 263.68 138.52"/><polygon class="c" points="263.68 127.36 269.41 132.94 275.13 127.36 269.41 121.78 263.68 127.36"/><polygon class="c" points="275.13 138.52 269.4 132.94 263.68 138.52 269.4 144.1 275.13 138.52"/><g class="d"><path class="c" d="M260.82,132.94a2.86,2.86,0,1,1,2.86,2.79,2.83,2.83,0,0,1-2.86-2.79"/><path class="c" d="M249.37,132.94a2.86,2.86,0,1,1,2.86,2.79,2.83,2.83,0,0,1-2.86-2.79"/><path class="c" d="M237.92,132.94a2.86,2.86,0,1,1,2.86,2.79,2.83,2.83,0,0,1-2.86-2.79"/><path class="c" d="M226.47,132.94a2.86,2.86,0,1,1,2.86,2.79,2.83,2.83,0,0,1-2.86-2.79"/></g><polygon class="c" points="349.16 407.1 354.88 401.52 349.16 395.94 343.43 401.52 349.16 407.1"/><polygon class="c" points="337.71 407.1 343.43 401.52 337.71 395.94 331.98 401.52 337.71 407.1"/><polygon class="c" points="343.43 412.68 349.16 418.26 354.88 412.68 349.16 407.1 343.43 412.68"/><polygon class="c" points="331.98 412.68 337.71 418.26 343.43 412.68 337.71 407.1 331.98 412.68"/><g class="d"><path class="c" d="M340.53,407.06a2.86,2.86,0,1,1,2.86,2.79,2.83,2.83,0,0,1-2.86-2.79"/><path class="c" d="M329.12,407.1a2.86,2.86,0,1,1,2.86,2.79,2.83,2.83,0,0,1-2.86-2.79"/></g><polygon class="c" points="286.19 401.48 280.46 395.9 274.74 401.48 280.46 407.06 286.19 401.48"/><polygon class="c" points="274.74 412.64 280.46 418.22 286.19 412.64 280.46 407.06 274.74 412.64"/><g class="d"><path class="c" d="M274.92,409.85a2.79,2.79,0,1,1,2.86-2.79,2.83,2.83,0,0,1-2.86,2.79"/></g><polygon class="c" points="297.63 401.52 291.91 395.94 286.19 401.52 291.91 407.1 297.63 401.52"/><polygon class="c" points="286.19 412.68 291.91 418.26 297.63 412.68 291.91 407.1 286.19 412.68"/><polygon class="c" points="309.08 401.52 303.36 395.94 297.63 401.52 303.36 407.1 309.08 401.52"/><polygon class="c" points="297.63 412.68 303.36 418.26 309.08 412.68 303.36 407.1 297.63 412.68"/><polygon class="c" points="320.53 401.52 314.81 395.94 309.08 401.52 314.81 407.1 320.53 401.52"/><polygon class="c" points="309.08 412.68 314.81 418.26 320.53 412.68 314.81 407.1 309.08 412.68"/><polygon class="c" points="331.98 401.52 326.26 395.94 320.53 401.52 326.26 407.1 331.98 401.52"/><polygon class="c" points="320.53 412.68 326.26 418.26 331.98 412.68 326.26 407.1 320.53 412.68"/><g class="d"><path class="c" d="M317.67,407.1a2.86,2.86,0,1,1,2.86,2.79,2.83,2.83,0,0,1-2.86-2.79"/><path class="c" d="M306.22,407.1a2.86,2.86,0,1,1,2.86,2.79,2.83,2.83,0,0,1-2.86-2.79"/><path class="c" d="M294.77,407.1a2.86,2.86,0,1,1,2.86,2.79,2.83,2.83,0,0,1-2.86-2.79"/><path class="c" d="M283.32,407.1a2.86,2.86,0,1,1,2.86,2.79,2.83,2.83,0,0,1-2.86-2.79"/></g><polygon class="c" points="229.33 401.48 223.61 395.9 217.88 401.48 223.61 407.06 229.33 401.48"/><polygon class="c" points="217.88 412.64 223.61 418.22 229.33 412.64 223.61 407.06 217.88 412.64"/><g class="d"><path class="c" d="M218.06,409.85a2.79,2.79,0,1,1,2.86-2.79,2.83,2.83,0,0,1-2.86,2.79"/></g><polygon class="c" points="240.78 401.52 235.06 395.94 229.33 401.52 235.06 407.1 240.78 401.52"/><polygon class="c" points="229.33 412.68 235.06 418.26 240.78 412.68 235.06 407.1 229.33 412.68"/><polygon class="c" points="252.23 401.52 246.51 395.94 240.78 401.52 246.51 407.1 252.23 401.52"/><polygon class="c" points="240.78 412.68 246.51 418.26 252.23 412.68 246.51 407.1 240.78 412.68"/><polygon class="c" points="263.68 401.52 257.96 395.94 252.23 401.52 257.96 407.1 263.68 401.52"/><polygon class="c" points="252.23 412.68 257.96 418.26 263.68 412.68 257.96 407.1 252.23 412.68"/><polygon class="c" points="275.13 401.52 269.4 395.94 263.68 401.52 269.4 407.1 275.13 401.52"/><polygon class="c" points="263.68 412.68 269.41 418.26 275.13 412.68 269.41 407.1 263.68 412.68"/><g class="d"><path class="c" d="M260.82,407.1a2.86,2.86,0,1,1,2.86,2.79,2.83,2.83,0,0,1-2.86-2.79"/><path class="c" d="M249.37,407.1a2.86,2.86,0,1,1,2.86,2.79,2.83,2.83,0,0,1-2.86-2.79"/><path class="c" d="M237.92,407.1a2.86,2.86,0,1,1,2.86,2.79,2.83,2.83,0,0,1-2.86-2.79"/><path class="c" d="M226.47,407.1a2.86,2.86,0,1,1,2.86,2.79,2.83,2.83,0,0,1-2.86-2.79"/></g><polygon class="c" points="491.82 412.54 497.4 418.26 502.98 412.54 497.4 406.82 491.82 412.54"/><polygon class="c" points="502.98 401.09 497.4 406.82 491.82 401.09 497.4 395.37 502.98 401.09"/><polygon class="c" points="502.98 412.54 508.56 418.26 514.14 412.54 508.56 406.82 502.98 412.54"/><polygon class="c" points="514.14 401.09 508.56 406.82 502.98 401.09 508.56 395.37 514.14 401.09"/><polygon class="c" points="514.14 412.54 519.72 418.26 525.3 412.54 519.72 406.82 514.14 412.54"/><polygon class="c" points="525.3 401.09 519.72 406.82 514.14 401.09 519.72 395.37 525.3 401.09"/><polygon class="c" points="525.3 412.54 530.89 418.26 536.47 412.54 530.89 406.82 525.3 412.54"/><polygon class="c" points="536.47 401.09 530.89 406.82 525.3 401.09 530.89 395.37 536.47 401.09"/><polygon class="c" points="536.47 412.54 542.05 418.26 547.63 412.54 542.05 406.82 536.47 412.54"/><polygon class="c" points="547.63 401.09 542.05 406.82 536.47 401.09 542.05 395.37 547.63 401.09"/><polygon class="c" points="547.63 412.54 553.21 418.26 558.79 412.54 553.21 406.82 547.63 412.54"/><polygon class="c" points="558.79 401.09 553.21 406.82 547.63 401.09 553.21 395.37 558.79 401.09"/><polygon class="c" points="558.79 412.54 564.37 418.26 569.95 412.54 564.37 406.82 558.79 412.54"/><polygon class="c" points="558.79 401.09 564.37 406.82 569.95 401.09 564.37 395.37 558.79 401.09"/><g class="d"><path class="c" d="M492,404a2.86,2.86,0,1,0,2.79,2.86A2.83,2.83,0,0,0,492,404"/><path class="c" d="M503,404a2.86,2.86,0,1,0,2.79,2.86A2.83,2.83,0,0,0,503,404"/><path class="c" d="M514.14,404a2.86,2.86,0,1,0,2.79,2.86,2.83,2.83,0,0,0-2.79-2.86"/><path class="c" d="M525.31,404a2.86,2.86,0,1,0,2.79,2.86,2.83,2.83,0,0,0-2.79-2.86"/><path class="c" d="M536.47,404a2.86,2.86,0,1,0,2.79,2.86,2.83,2.83,0,0,0-2.79-2.86"/><path class="c" d="M547.63,404a2.86,2.86,0,1,0,2.79,2.86,2.83,2.83,0,0,0-2.79-2.86"/><path class="c" d="M558.75,403.91a2.86,2.86,0,1,0,2.79,2.86,2.83,2.83,0,0,0-2.79-2.86"/><path class="c" d="M558.79,392.5a2.86,2.86,0,1,0,2.79,2.86,2.83,2.83,0,0,0-2.79-2.86"/></g><polygon class="c" points="553.17 349.57 547.59 343.85 553.17 338.12 558.75 343.85 553.17 349.57"/><polygon class="c" points="558.75 343.85 564.33 349.57 569.91 343.85 564.33 338.12 558.75 343.85"/><g class="d"><path class="c" d="M561.54,338.3a2.79,2.79,0,1,0-2.79,2.86,2.83,2.83,0,0,0,2.79-2.86"/></g><polygon class="c" points="553.21 361.02 547.63 355.3 553.21 349.57 558.79 355.3 553.21 361.02"/><polygon class="c" points="558.79 355.3 564.37 361.02 569.95 355.3 564.37 349.57 558.79 355.3"/><polygon class="c" points="553.21 372.47 547.63 366.74 553.21 361.02 558.79 366.74 553.21 372.47"/><polygon class="c" points="558.79 366.75 564.37 372.47 569.95 366.75 564.37 361.02 558.79 366.75"/><polygon class="c" points="553.21 383.92 547.63 378.19 553.21 372.47 558.79 378.19 553.21 383.92"/><polygon class="c" points="558.79 378.19 564.37 383.92 569.95 378.19 564.37 372.47 558.79 378.19"/><polygon class="c" points="553.21 395.37 547.63 389.64 553.21 383.92 558.79 389.64 553.21 395.37"/><polygon class="c" points="558.79 389.64 564.37 395.37 569.95 389.64 564.37 383.92 558.79 389.64"/><g class="d"><path class="c" d="M558.79,381.06a2.86,2.86,0,1,0,2.79,2.86,2.83,2.83,0,0,0-2.79-2.86"/><path class="c" d="M558.79,369.61a2.86,2.86,0,1,0,2.79,2.86,2.83,2.83,0,0,0-2.79-2.86"/><path class="c" d="M558.79,358.16a2.86,2.86,0,1,0,2.79,2.86,2.83,2.83,0,0,0-2.79-2.86"/><path class="c" d="M558.79,346.71a2.86,2.86,0,1,0,2.79,2.86,2.83,2.83,0,0,0-2.79-2.86"/></g><polygon class="c" points="553.17 292.72 547.59 286.99 553.17 281.27 558.75 286.99 553.17 292.72"/><polygon class="c" points="553.17 281.27 547.59 275.54 553.17 269.82 558.75 275.54 553.17 281.27"/><polygon class="c" points="553.17 270 547.59 264.27 553.17 258.55 558.75 264.27 553.17 270"/><polygon class="c" points="558.75 286.99 564.33 292.72 569.91 286.99 564.33 281.27 558.75 286.99"/><polygon class="c" points="558.75 275.55 564.33 281.27 569.91 275.55 564.33 269.82 558.75 275.55"/><polygon class="c" points="558.75 264.27 564.33 270 569.91 264.27 564.33 258.55 558.75 264.27"/><g class="d"><path class="c" d="M561.54,281.45a2.79,2.79,0,1,0-2.79,2.86,2.83,2.83,0,0,0,2.79-2.86"/><path class="c" d="M561.54,270a2.79,2.79,0,1,0-2.79,2.86,2.83,2.83,0,0,0,2.79-2.86"/></g><polygon class="c" points="553.21 304.17 547.63 298.44 553.21 292.72 558.79 298.44 553.21 304.17"/><polygon class="c" points="558.79 298.44 564.37 304.17 569.95 298.44 564.37 292.72 558.79 298.44"/><polygon class="c" points="553.21 315.62 547.63 309.89 553.21 304.17 558.79 309.89 553.21 315.62"/><polygon class="c" points="558.79 309.89 564.37 315.62 569.95 309.89 564.37 304.17 558.79 309.89"/><polygon class="c" points="553.21 327.06 547.63 321.34 553.21 315.62 558.79 321.34 553.21 327.06"/><polygon class="c" points="558.79 321.34 564.37 327.06 569.95 321.34 564.37 315.62 558.79 321.34"/><polygon class="c" points="553.21 338.51 547.63 332.79 553.21 327.06 558.79 332.79 553.21 338.51"/><polygon class="c" points="558.79 332.79 564.37 338.51 569.95 332.79 564.37 327.06 558.79 332.79"/><g class="d"><path class="c" d="M558.79,324.2a2.86,2.86,0,1,0,2.79,2.86,2.83,2.83,0,0,0-2.79-2.86"/><path class="c" d="M558.79,312.75a2.86,2.86,0,1,0,2.79,2.86,2.83,2.83,0,0,0-2.79-2.86"/><path class="c" d="M558.79,301.31a2.86,2.86,0,1,0,2.79,2.86,2.83,2.83,0,0,0-2.79-2.86"/><path class="c" d="M558.79,289.86a2.86,2.86,0,1,0,2.79,2.86,2.83,2.83,0,0,0-2.79-2.86"/></g><polygon class="c" points="497.4 121.73 491.82 127.46 497.4 133.18 502.98 127.46 497.4 121.73"/><polygon class="c" points="502.98 138.91 497.4 133.18 491.82 138.91 497.4 144.63 502.98 138.91"/><polygon class="c" points="508.56 121.73 502.98 127.46 508.56 133.18 514.14 127.46 508.56 121.73"/><polygon class="c" points="514.14 138.91 508.56 133.18 502.98 138.91 508.56 144.63 514.14 138.91"/><polygon class="c" points="519.72 121.73 514.14 127.46 519.72 133.18 525.3 127.46 519.72 121.73"/><polygon class="c" points="525.3 138.91 519.72 133.18 514.14 138.91 519.72 144.63 525.3 138.91"/><polygon class="c" points="530.89 121.73 525.3 127.46 530.89 133.18 536.47 127.46 530.89 121.73"/><polygon class="c" points="536.47 138.91 530.89 133.18 525.3 138.91 530.89 144.63 536.47 138.91"/><polygon class="c" points="542.05 121.73 536.47 127.46 542.05 133.18 547.63 127.46 542.05 121.73"/><polygon class="c" points="547.63 138.91 542.05 133.18 536.47 138.91 542.05 144.63 547.63 138.91"/><polygon class="c" points="553.21 121.73 547.63 127.46 553.21 133.18 558.79 127.46 553.21 121.73"/><polygon class="c" points="558.79 138.91 553.21 133.18 547.63 138.91 553.21 144.63 558.79 138.91"/><polygon class="c" points="564.37 121.73 558.79 127.46 564.37 133.18 569.95 127.46 564.37 121.73"/><polygon class="c" points="558.79 138.91 564.37 144.63 569.95 138.91 564.37 133.18 558.79 138.91"/><g class="d"><path class="c" d="M492,136a2.86,2.86,0,1,1,2.79-2.86A2.83,2.83,0,0,1,492,136"/><path class="c" d="M503,136a2.86,2.86,0,1,1,2.79-2.86A2.83,2.83,0,0,1,503,136"/><path class="c" d="M514.14,136a2.86,2.86,0,1,1,2.79-2.86,2.83,2.83,0,0,1-2.79,2.86"/><path class="c" d="M525.31,136a2.86,2.86,0,1,1,2.79-2.86,2.83,2.83,0,0,1-2.79,2.86"/><path class="c" d="M536.47,136a2.86,2.86,0,1,1,2.79-2.86,2.83,2.83,0,0,1-2.79,2.86"/><path class="c" d="M547.63,136a2.86,2.86,0,1,1,2.79-2.86,2.83,2.83,0,0,1-2.79,2.86"/><path class="c" d="M558.75,136.09a2.86,2.86,0,1,1,2.79-2.86,2.83,2.83,0,0,1-2.79,2.86"/><path class="c" d="M558.79,147.5a2.86,2.86,0,1,1,2.79-2.86,2.83,2.83,0,0,1-2.79,2.86"/></g><polygon class="c" points="553.17 190.43 547.59 196.15 553.17 201.88 558.75 196.15 553.17 190.43"/><polygon class="c" points="558.75 196.15 564.33 201.88 569.91 196.15 564.33 190.43 558.75 196.15"/><g class="d"><path class="c" d="M561.54,201.7a2.79,2.79,0,1,1-2.79-2.86,2.83,2.83,0,0,1,2.79,2.86"/></g><polygon class="c" points="553.21 178.98 547.63 184.71 553.21 190.43 558.79 184.71 553.21 178.98"/><polygon class="c" points="558.79 184.7 564.37 190.43 569.95 184.7 564.37 178.98 558.79 184.7"/><polygon class="c" points="553.21 167.53 547.63 173.26 553.21 178.98 558.79 173.26 553.21 167.53"/><polygon class="c" points="558.79 173.25 564.37 178.98 569.95 173.25 564.37 167.53 558.79 173.25"/><polygon class="c" points="553.21 156.08 547.63 161.81 553.21 167.53 558.79 161.81 553.21 156.08"/><polygon class="c" points="558.79 161.81 564.37 167.53 569.95 161.81 564.37 156.08 558.79 161.81"/><polygon class="c" points="553.21 144.63 547.63 150.36 553.21 156.08 558.79 150.36 553.21 144.63"/><polygon class="c" points="558.79 150.36 564.37 156.08 569.95 150.36 564.37 144.63 558.79 150.36"/><g class="d"><path class="c" d="M558.79,158.94a2.86,2.86,0,1,1,2.79-2.86,2.83,2.83,0,0,1-2.79,2.86"/><path class="c" d="M558.79,170.39a2.86,2.86,0,1,1,2.79-2.86,2.83,2.83,0,0,1-2.79,2.86"/><path class="c" d="M558.79,181.84a2.86,2.86,0,1,1,2.79-2.86,2.83,2.83,0,0,1-2.79,2.86"/><path class="c" d="M558.79,193.29a2.86,2.86,0,1,1,2.79-2.86,2.83,2.83,0,0,1-2.79,2.86"/></g><polygon class="c" points="553.17 247.28 547.59 253.01 553.17 258.73 558.75 253.01 553.17 247.28"/><polygon class="c" points="558.75 253.01 564.33 258.73 569.91 253.01 564.33 247.28 558.75 253.01"/><g class="d"><path class="c" d="M561.54,258.55a2.79,2.79,0,1,1-2.79-2.86,2.83,2.83,0,0,1,2.79,2.86"/></g><polygon class="c" points="553.21 235.83 547.63 241.56 553.21 247.28 558.79 241.56 553.21 235.83"/><polygon class="c" points="558.79 241.56 564.37 247.28 569.95 241.56 564.37 235.83 558.79 241.56"/><polygon class="c" points="553.21 224.38 547.63 230.11 553.21 235.83 558.79 230.11 553.21 224.38"/><polygon class="c" points="558.79 230.11 564.37 235.83 569.95 230.11 564.37 224.38 558.79 230.11"/><polygon class="c" points="553.21 212.94 547.63 218.66 553.21 224.38 558.79 218.66 553.21 212.94"/><polygon class="c" points="558.79 218.66 564.37 224.38 569.95 218.66 564.37 212.93 558.79 218.66"/><polygon class="c" points="553.21 201.49 547.63 207.21 553.21 212.94 558.79 207.21 553.21 201.49"/><polygon class="c" points="558.79 207.21 564.37 212.94 569.95 207.21 564.37 201.49 558.79 207.21"/><g class="d"><path class="c" d="M558.79,215.8a2.86,2.86,0,1,1,2.79-2.86,2.83,2.83,0,0,1-2.79,2.86"/><path class="c" d="M558.79,227.25a2.86,2.86,0,1,1,2.79-2.86,2.83,2.83,0,0,1-2.79,2.86"/><path class="c" d="M558.79,238.69a2.86,2.86,0,1,1,2.79-2.86,2.83,2.83,0,0,1-2.79,2.86"/><path class="c" d="M558.79,250.14a2.86,2.86,0,1,1,2.79-2.86,2.83,2.83,0,0,1-2.79,2.86"/></g></svg>