<?xml version="1.0" encoding="utf-8"?>
<!-- Generator: Adobe Illustrator 19.1.0, SVG Export Plug-In . SVG Version: 6.00 Build 0)  -->
<svg version="1.1" id="Layer_1" xmlns="http://www.w3.org/2000/svg" xmlns:xlink="http://www.w3.org/1999/xlink" x="0px" y="0px"
	 viewBox="0 0 40 40" enable-background="new 0 0 40 40" xml:space="preserve">
<path fill="#FFFFFF" d="M27.313,16.53c0-6.044-4.893-10.935-10.935-10.935c-6.044,0-10.952,4.891-10.952,10.935
	c0,6.042,4.908,10.952,10.952,10.952C22.421,27.481,27.313,22.573,27.313,16.53 M34.748,39.647l-9.395-9.395
	c-2.575,1.684-5.653,2.673-8.975,2.673C7.324,32.925,0,25.586,0,16.53C0,7.492,7.322,0.152,16.379,0.152
	c9.041,0,16.377,7.341,16.377,16.378c0,3.161-0.89,6.105-2.43,8.601l9.463,9.461c0.501,0.486,0.081,1.703-0.925,2.705l-1.409,1.413
	C36.45,39.713,35.235,40.131,34.748,39.647"/>
</svg>
