<svg version="1.1" xmlns="http://www.w3.org/2000/svg" xmlns:xlink="http://www.w3.org/1999/xlink" x="0px" y="0px"
 viewBox="0 0 180 70" style="enable-background:new 0 0 180 70;" xml:space="preserve">
<path d="M114.6,59l-1.4-1.4c-5.7,5.7-13.6,9.2-22.3,9.2c-17.6,0-31.8-14.2-31.8-31.8c0-8.7,3.5-16.6,9.2-22.3
l-1.4-1.4c6.1-6.2,14.6-10,24-10c18.6,0,33.7,15.1,33.7,33.7C124.6,44.4,120.8,52.9,114.6,59 M108.9,63.5c2-1.3,3.9-2.8,5.6-4.5
C112.9,60.7,111,62.2,108.9,63.5 M66.9,11.3c-1.7,1.7-3.2,3.6-4.5,5.6C63.7,14.9,65.2,13,66.9,11.3 M90.9,0.7
C72,0.7,56.6,16.1,56.6,35c0,18.9,15.4,34.3,34.3,34.3c18.9,0,34.3-15.4,34.3-34.3C125.1,16.1,109.8,0.7,90.9,0.7 M90.9,64
c-16,0-29-13-29-29c0-16,13-29,29-29c16,0,29,13,29,29C119.9,51,106.9,64,90.9,64 M90.9,3.2C82,3.2,74,6.8,68.3,12.7l1.6,1.6
c-5.3,5.3-8.5,12.7-8.5,20.8c0,16.3,13.3,29.6,29.6,29.6c8.1,0,15.4-3.3,20.8-8.5l1.6,1.6c5.8-5.8,9.5-13.8,9.5-22.6
C122.7,17.4,108.4,3.2,90.9,3.2"/>
<path d="M90.9,41.7L90.9,41.7v-2.9L80.1,28.1l2.1,4.8v14.7l-2.1-2.1V28.1l-2-4.7v-0.1L90.9,36v2.8l10.7-10.7l2.1-4.9l0,0v24.4
l-2.1-2.1V28.1l-2,4.7L90.9,41.7z M90.9,35.3L77.5,21.9v26.2h5.2v-14l8.2,8.3l8.2-8.3v14h5.2V21.9L90.9,35.3z"/>
<path d="M137.6,30.9l2.6-1.6h1.4v11.4h-1.8v-9.3l-2.1,1.3h-0.1V30.9z M151.1,30.7c1.1,0,1.9,0.6,1.9,1.6
c0,1-0.9,1.7-1.9,1.7c-1,0-1.9-0.6-1.9-1.7C149.2,31.2,150,30.7,151.1,30.7 M153.4,37.4c0,1.3-1.1,2-2.2,2c-1.1,0-2.2-0.7-2.2-2
c0-1.1,1-2,2.2-2C152.4,35.4,153.4,36.3,153.4,37.4 M147.1,37.4c0,2.2,1.9,3.5,4,3.5c2.2,0,4-1.3,4-3.5c0-1.4-0.8-2.4-1.7-2.8
c0.8-0.3,1.4-1.4,1.4-2.4c0-2.1-1.8-3.2-3.7-3.2c-1.8,0-3.7,1.1-3.7,3.2c0,1,0.5,2.1,1.4,2.4C147.9,35,147.1,36.1,147.1,37.4
 M163.8,30.7c1.4,0,2.4,1.1,2.4,2.5c0,1.4-1,2.4-2.4,2.4c-1.4,0-2.5-1.1-2.5-2.4C161.3,31.7,162.3,30.7,163.8,30.7 M167.3,35.4
c0.4-0.6,0.6-1.6,0.6-2.2c0-2-1.5-4.1-4.3-4.1c-2.8,0-4.2,2.1-4.2,4.1c0,2,1.6,3.9,3.8,3.9c0.4,0,0.7-0.1,1-0.2
c-0.2,0.3-0.4,0.5-0.7,1.1l-1.6,2.6v0.1h1.9C165.9,37.5,166.8,36.3,167.3,35.4 M174.3,30.9h4.9v-1.6h-6.6v6.2h1.3c0.3-0.6,1-1,1.9-1
c1.3,0,2.3,0.9,2.3,2.4c0,1.4-1,2.5-2.6,2.5c-1.1,0-2.4-0.6-2.9-1.1h-0.1v1.8c0.6,0.5,1.9,0.9,3.1,0.9c2.4,0,4.3-1.4,4.3-4.1
c0-2.5-1.9-3.9-3.8-3.9c-0.6,0-1.4,0.1-1.9,0.5V30.9z"/>
<path d="M1.8,39.1h6v1.6H0V29.3h7.8v1.6H1.8v2.9h5.6v1.6H1.8V39.1z M24,30.9h3.8v9.8h1.8v-9.8h3.8v-1.6H24V30.9z
 M17.5,34.2L16,33.6c-0.9-0.3-1.5-0.6-1.5-1.5c0-0.9,0.7-1.5,2-1.5c1.1,0,2.2,0.5,2.7,1h0.1v-1.8c-0.5-0.4-1.8-0.8-2.9-0.8
c-2.2,0-3.7,1.4-3.7,3.1c0,1.8,1.2,2.6,2.5,3.1l1.3,0.5c1.1,0.4,1.8,0.8,1.8,1.9s-0.8,1.8-2.3,1.8c-1.3,0-2.7-0.6-3.2-1.1h-0.1v1.8
c0.7,0.5,2,0.9,3.3,0.9c2.4,0,4.2-1.4,4.2-3.6C20.1,35.5,18.8,34.6,17.5,34.2 M39.3,35.5h1c1.5,0,2.4-0.6,2.4-2.4
c0-1.8-0.9-2.5-2.4-2.5h-1V35.5z M44.2,33.1c0,2.4-1.4,3.7-3.9,3.7h-2.4v-7.5h2.4C43.1,29.3,44.2,31.1,44.2,33.1 M37.8,40.7h6.3
v-1.3h-6.3V40.7z"/>
</svg>