<?xml version="1.0" encoding="utf-8"?>
<!-- Generator: Adobe Illustrator 19.1.0, SVG Export Plug-In . SVG Version: 6.00 Build 0)  -->
<svg version="1.1" id="Layer_1" xmlns="http://www.w3.org/2000/svg" xmlns:xlink="http://www.w3.org/1999/xlink" x="0px" y="0px"
	 viewBox="0 0 17 40" style="enable-background:new 0 0 17 40;" xml:space="preserve">
<style type="text/css">
	.st0{fill:#333333;}
</style>
<path class="st0" d="M13.5,39.2c-0.1,0.5-0.4,0.8-0.7,0.8c-0.4,0-0.8-0.3-1-0.7c-0.3-0.5-0.3-1.1-0.3-1.6c0-1.5,0.3-2.4,0.5-3.2
	c-0.2-1.6-0.1-2.6,0.3-4.1C12,29.1,12,28,12.2,26.9c0-0.2,0-0.4,0-0.5c0-0.1-0.1,0-0.1,0c-0.2,0.7-0.5,2.3-0.7,3.1
	c-0.1,0.6-0.3,1.4-0.6,1.9c-0.2,0.3-0.6,0.5-1.1,0.5c-0.2,0-0.5,0-0.7-0.1c-0.8-0.2-1.5-0.6-1.5-1.7c0-0.5,0.2-1.4,0.4-2.1
	c0.2-0.9,0.4-1.6,0.4-2.2c0-0.1-0.1-0.1-0.1,0c-0.2,0.7-0.7,2.5-0.9,3.1c-0.2,1-0.4,1.6-1.5,1.6c-1.4,0-2.1-0.5-2.1-1.9
	c0-1,0.6-2.9,0.6-3.8c0,0,0,0-0.1,0c-0.2,0.5-0.4,1.1-0.6,1.6c-0.2,0.6-0.5,1.6-0.8,1.8c-0.2,0.2-0.4,0.2-0.6,0.2
	c-0.2,0-0.5,0-0.7-0.1c-0.7-0.3-1.1-0.5-1.2-1.1C0.2,27,0.2,26.6,0.2,26c0-0.4,0-0.8,0.1-1.2c0.1-0.6,0.2-0.9,0.7-1.2
	c0,0.2,0.1,0.6,0.1,0.8c-0.1,0.4-0.2,0.7-0.1,1.3C1,25.5,1,25.2,1.1,25l0.2-0.6C1,22.9,0.9,20.9,0.9,19v-2.7c0-1.5,0.5-3,1.1-4.2
	c0.7-1.4,1.4-2.7,1.7-3.4C3.9,8.1,4.2,8,4.7,8c0.8-0.1,1.7-0.2,2.6-0.2c1.6,0,3.2,0.3,4.5,0.7c0.6,0.2,0.7,0.3,0.8,1
	c0.3,2.4,1.7,7.8,2.2,9.3c0.5,1.6,1.4,3.4,1.4,4.9c0,0.6-0.1,1.2-0.2,1.8c-0.2,1.4-0.4,2.8-0.4,4.4c0,1.3-0.1,2-0.3,2.8
	c-0.2,0.8-0.5,2.2-0.6,2.7c-0.1,0.6-0.2,1.2-0.4,1.9C13.9,38,13.6,38.7,13.5,39.2 M3.6,3.9c0.5,0,0.9-0.4,0.9-0.9
	c0-0.4-0.4-0.7-0.9-0.7C3,2.3,2.6,2.7,2.6,3.1C2.6,3.6,3.1,3.9,3.6,3.9 M1.3,9c0.3-0.3,1.5-0.6,2.1-0.6C3,9.2,2.8,9.6,2.5,10
	C0,9.7,0.2,9.5,0.1,8.9C0,7.8,0,4.3,0,2.6c0-0.8,0.4-1.1,1.4-1.5C3.2,0.4,5.1,0,7,0c2.4,0,4.7,0.6,6.7,1.8c0.4,0.3,0.6,0.6,0.6,1.5
	c0.1,2.1,0.2,4.9,0.2,5.8c0,0.7-0.3,1.1-1.5,1.4C13,10.2,13,9.8,13,9.6c0.6-0.1,0.7-0.3,0.7-0.5c0-0.2-0.2-0.4-0.3-0.5
	c-1.2-0.9-3.6-1.5-6.1-1.5C5.2,7.2,3,7.5,1.6,8.3C1.4,8.4,1.2,8.6,1.2,8.8C1.2,8.9,1.2,8.9,1.3,9"/>
</svg>
