<svg xmlns="http://www.w3.org/2000/svg" xmlns:xlink="http://www.w3.org/1999/xlink" width="710" height="540" viewBox="0 0 710 540"><defs><style>.a{fill:none;}.b{opacity:0;}.c{clip-path:url(#a);}.d{fill:#fff;}</style><clipPath id="a"><rect class="a" x="136.5" y="125.01" width="436.9" height="291.25"/></clipPath></defs><title>Untitled-1</title><rect class="b" width="710" height="540"/><g class="c"><path class="d" d="M154.37,134.16a8.72,8.72,0,0,0-8.72,8.64,8.71,8.71,0,0,0-8.72-8.64h0v-0.09h0a8.71,8.71,0,0,0,8.72-8.64,8.72,8.72,0,0,0,8.72,8.64h0v0.09h0ZM145.66,125a9.11,9.11,0,1,0,9.11,9.11,9.11,9.11,0,0,0-9.11-9.11"/><path class="d" d="M172.58,134.16a8.72,8.72,0,0,0-8.72,8.64,8.72,8.72,0,0,0-8.72-8.64h0v-0.09h0a8.72,8.72,0,0,0,8.72-8.64,8.72,8.72,0,0,0,8.72,8.64h0v0.09h0ZM163.86,125a9.11,9.11,0,1,0,9.11,9.11,9.11,9.11,0,0,0-9.11-9.11"/><path class="d" d="M190.79,134.16a8.72,8.72,0,0,0-8.72,8.64,8.72,8.72,0,0,0-8.72-8.64v-0.09h0a8.72,8.72,0,0,0,8.72-8.64,8.72,8.72,0,0,0,8.72,8.64h0v0.09h0ZM182.07,125a9.11,9.11,0,1,0,9.11,9.11,9.11,9.11,0,0,0-9.11-9.11"/><path class="d" d="M209,134.16a8.72,8.72,0,0,0-8.72,8.64,8.72,8.72,0,0,0-8.72-8.64h0v-0.09h0a8.72,8.72,0,0,0,8.72-8.64,8.72,8.72,0,0,0,8.72,8.64h0v0.09h0ZM200.28,125a9.11,9.11,0,1,0,9.11,9.11,9.11,9.11,0,0,0-9.11-9.11"/><path class="d" d="M227.2,134.16a8.72,8.72,0,0,0-8.72,8.64,8.71,8.71,0,0,0-8.72-8.64h0v-0.09h0a8.71,8.71,0,0,0,8.72-8.64,8.72,8.72,0,0,0,8.72,8.64h0v0.09h0ZM218.49,125a9.11,9.11,0,1,0,9.11,9.11,9.11,9.11,0,0,0-9.11-9.11"/><path class="d" d="M154.32,152.38A8.72,8.72,0,0,0,145.6,161a8.72,8.72,0,0,0-8.72-8.64h0v-0.09h0a8.72,8.72,0,0,0,8.72-8.64,8.72,8.72,0,0,0,8.72,8.64h0v0.09h0Zm-8.72-9.15a9.11,9.11,0,1,0,9.11,9.11,9.11,9.11,0,0,0-9.11-9.11"/><path class="d" d="M154.32,170.56a8.72,8.72,0,0,0-8.72,8.64,8.72,8.72,0,0,0-8.72-8.64h0v-0.09h0a8.72,8.72,0,0,0,8.72-8.64,8.72,8.72,0,0,0,8.72,8.64h0v0.09h0Zm-8.72-9.15a9.11,9.11,0,1,0,9.11,9.11,9.11,9.11,0,0,0-9.11-9.11"/><path class="d" d="M154.32,188.74a8.72,8.72,0,0,0-8.72,8.64,8.72,8.72,0,0,0-8.72-8.64h0v-0.09h0A8.72,8.72,0,0,0,145.6,180a8.72,8.72,0,0,0,8.72,8.64h0v0.09h0Zm-8.72-9.15a9.11,9.11,0,1,0,9.11,9.11,9.11,9.11,0,0,0-9.11-9.11"/><path class="d" d="M154.32,206.92a8.72,8.72,0,0,0-8.72,8.64,8.72,8.72,0,0,0-8.72-8.64h0v-0.09h0a8.72,8.72,0,0,0,8.72-8.64,8.72,8.72,0,0,0,8.72,8.64h0v0.09h0Zm-8.72-9.15a9.11,9.11,0,1,0,9.11,9.11,9.11,9.11,0,0,0-9.11-9.11"/><path class="d" d="M154.32,225.17a8.72,8.72,0,0,0-8.72,8.64,8.72,8.72,0,0,0-8.72-8.64h0v-0.09h0a8.72,8.72,0,0,0,8.72-8.64,8.72,8.72,0,0,0,8.72,8.64h0v0.09h0ZM145.6,216a9.11,9.11,0,1,0,9.11,9.11A9.11,9.11,0,0,0,145.6,216"/><path class="d" d="M236.75,125.41a8.72,8.72,0,0,0,8.64,8.72,8.72,8.72,0,0,0-8.64,8.72h-0.09a8.72,8.72,0,0,0-8.64-8.72,8.72,8.72,0,0,0,8.64-8.72h0.09Zm-9.15,8.72A9.11,9.11,0,1,0,236.7,125a9.11,9.11,0,0,0-9.11,9.11"/><path class="d" d="M236.75,398.44a8.72,8.72,0,0,0,8.64,8.72,8.72,8.72,0,0,0-8.64,8.72h-0.09a8.72,8.72,0,0,0-8.64-8.72,8.72,8.72,0,0,0,8.64-8.72h0.09Zm-9.15,8.72a9.11,9.11,0,1,0,9.11-9.11,9.11,9.11,0,0,0-9.11,9.11"/><path class="d" d="M345.9,125.41a8.72,8.72,0,0,0,8.64,8.72,8.72,8.72,0,0,0-8.64,8.72h-0.09a8.72,8.72,0,0,0-8.64-8.72,8.72,8.72,0,0,0,8.64-8.72h0.09Zm-9.15,8.72a9.11,9.11,0,1,0,9.11-9.11,9.11,9.11,0,0,0-9.11,9.11"/><path class="d" d="M345.9,398.44a8.72,8.72,0,0,0,8.64,8.72,8.72,8.72,0,0,0-8.64,8.72h-0.09a8.72,8.72,0,0,0-8.64-8.72,8.72,8.72,0,0,0,8.64-8.72h0.09Zm-9.15,8.72a9.11,9.11,0,1,0,9.11-9.11,9.11,9.11,0,0,0-9.11,9.11"/><path class="d" d="M154.32,279.74a8.72,8.72,0,0,0-8.72,8.64,8.72,8.72,0,0,0-8.72-8.64h0v-0.09h0A8.72,8.72,0,0,0,145.6,271a8.72,8.72,0,0,0,8.72,8.64h0v0.09h0Zm-8.72-9.15a9.11,9.11,0,1,0,9.11,9.11,9.11,9.11,0,0,0-9.11-9.11"/><path class="d" d="M291.32,125.41a8.72,8.72,0,0,0,8.64,8.72,8.72,8.72,0,0,0-8.64,8.72h-0.09a8.72,8.72,0,0,0-8.64-8.72,8.72,8.72,0,0,0,8.64-8.72h0.09Zm-9.15,8.72a9.11,9.11,0,1,0,9.11-9.11,9.11,9.11,0,0,0-9.11,9.11"/><path class="d" d="M291.32,398.44a8.72,8.72,0,0,0,8.64,8.72,8.72,8.72,0,0,0-8.64,8.72h-0.09a8.72,8.72,0,0,0-8.64-8.72,8.72,8.72,0,0,0,8.64-8.72h0.09Zm-9.15,8.72a9.11,9.11,0,1,0,9.11-9.11,9.11,9.11,0,0,0-9.11,9.11"/><path class="d" d="M400.47,125.41a8.72,8.72,0,0,0,8.64,8.72,8.72,8.72,0,0,0-8.64,8.72h-0.09a8.72,8.72,0,0,0-8.64-8.72,8.72,8.72,0,0,0,8.64-8.72h0.09Zm-9.15,8.72a9.11,9.11,0,1,0,9.11-9.11,9.11,9.11,0,0,0-9.11,9.11"/><path class="d" d="M400.47,398.44a8.72,8.72,0,0,0,8.64,8.72,8.72,8.72,0,0,0-8.64,8.72h-0.09a8.72,8.72,0,0,0-8.64-8.72,8.72,8.72,0,0,0,8.64-8.72h0.09Zm-9.15,8.72a9.11,9.11,0,1,0,9.11-9.11,9.11,9.11,0,0,0-9.11,9.11"/><path class="d" d="M154.32,243.35A8.72,8.72,0,0,0,145.6,252a8.72,8.72,0,0,0-8.72-8.64h0v-0.09h0a8.72,8.72,0,0,0,8.72-8.64,8.72,8.72,0,0,0,8.72,8.64h0v0.09h0Zm-8.72-9.15a9.11,9.11,0,1,0,9.11,9.11,9.11,9.11,0,0,0-9.11-9.11"/><path class="d" d="M254.93,125.41a8.72,8.72,0,0,0,8.64,8.72,8.72,8.72,0,0,0-8.64,8.72h-0.09a8.72,8.72,0,0,0-8.64-8.72,8.72,8.72,0,0,0,8.64-8.72h0.09Zm-9.15,8.72a9.11,9.11,0,1,0,9.11-9.11,9.11,9.11,0,0,0-9.11,9.11"/><path class="d" d="M254.93,398.44a8.72,8.72,0,0,0,8.64,8.72,8.72,8.72,0,0,0-8.64,8.72h-0.09a8.72,8.72,0,0,0-8.64-8.72,8.72,8.72,0,0,0,8.64-8.72h0.09Zm-9.15,8.72a9.11,9.11,0,1,0,9.11-9.11,9.11,9.11,0,0,0-9.11,9.11"/><path class="d" d="M364.08,125.41a8.72,8.72,0,0,0,8.64,8.72,8.72,8.72,0,0,0-8.64,8.72H364a8.72,8.72,0,0,0-8.64-8.72,8.72,8.72,0,0,0,8.64-8.72h0.09Zm-9.15,8.72A9.11,9.11,0,1,0,364,125a9.11,9.11,0,0,0-9.11,9.11"/><path class="d" d="M364.08,398.44a8.72,8.72,0,0,0,8.64,8.72,8.72,8.72,0,0,0-8.64,8.72H364a8.72,8.72,0,0,0-8.64-8.72,8.72,8.72,0,0,0,8.64-8.72h0.09Zm-9.15,8.72a9.11,9.11,0,1,0,9.11-9.11,9.11,9.11,0,0,0-9.11,9.11"/><path class="d" d="M154.32,297.92a8.72,8.72,0,0,0-8.72,8.64,8.72,8.72,0,0,0-8.72-8.64h0v-0.09h0a8.72,8.72,0,0,0,8.72-8.64,8.72,8.72,0,0,0,8.72,8.64h0v0.09h0Zm-8.72-9.15a9.11,9.11,0,1,0,9.11,9.11,9.11,9.11,0,0,0-9.11-9.11"/><path class="d" d="M309.5,125.41a8.72,8.72,0,0,0,8.64,8.72,8.72,8.72,0,0,0-8.64,8.72h-0.09a8.72,8.72,0,0,0-8.64-8.72,8.72,8.72,0,0,0,8.64-8.72h0.09Zm-9.15,8.72a9.11,9.11,0,1,0,9.11-9.11,9.11,9.11,0,0,0-9.11,9.11"/><path class="d" d="M309.5,398.44a8.72,8.72,0,0,0,8.64,8.72,8.72,8.72,0,0,0-8.64,8.72h-0.09a8.72,8.72,0,0,0-8.64-8.72,8.72,8.72,0,0,0,8.64-8.72h0.09Zm-9.15,8.72a9.11,9.11,0,1,0,9.11-9.11,9.11,9.11,0,0,0-9.11,9.11"/><path class="d" d="M418.66,125.41a8.72,8.72,0,0,0,8.64,8.72,8.72,8.72,0,0,0-8.64,8.72h-0.09a8.72,8.72,0,0,0-8.64-8.72,8.72,8.72,0,0,0,8.64-8.72h0.09Zm-9.15,8.72a9.11,9.11,0,1,0,9.11-9.11,9.11,9.11,0,0,0-9.11,9.11"/><path class="d" d="M418.66,398.44a8.72,8.72,0,0,0,8.64,8.72,8.72,8.72,0,0,0-8.64,8.72h-0.09a8.72,8.72,0,0,0-8.64-8.72,8.72,8.72,0,0,0,8.64-8.72h0.09Zm-9.15,8.72a9.11,9.11,0,1,0,9.11-9.11,9.11,9.11,0,0,0-9.11,9.11"/><path class="d" d="M455,125.41a8.72,8.72,0,0,0,8.64,8.72,8.72,8.72,0,0,0-8.64,8.72H455a8.72,8.72,0,0,0-8.64-8.72,8.72,8.72,0,0,0,8.64-8.72H455Zm-9.15,8.72A9.11,9.11,0,1,0,455,125a9.11,9.11,0,0,0-9.11,9.11"/><path class="d" d="M455,398.44a8.72,8.72,0,0,0,8.64,8.72,8.72,8.72,0,0,0-8.64,8.72H455a8.72,8.72,0,0,0-8.64-8.72,8.72,8.72,0,0,0,8.64-8.72H455Zm-9.15,8.72a9.11,9.11,0,1,0,9.11-9.11,9.11,9.11,0,0,0-9.11,9.11"/><path class="d" d="M154.32,261.53a8.72,8.72,0,0,0-8.72,8.64,8.72,8.72,0,0,0-8.72-8.64h0v-0.09h0a8.72,8.72,0,0,0,8.72-8.64,8.72,8.72,0,0,0,8.72,8.64h0v0.09h0Zm-8.72-9.15a9.11,9.11,0,1,0,9.11,9.11,9.11,9.11,0,0,0-9.11-9.11"/><path class="d" d="M273.11,125.41a8.72,8.72,0,0,0,8.64,8.72,8.72,8.72,0,0,0-8.64,8.72H273a8.72,8.72,0,0,0-8.64-8.72,8.72,8.72,0,0,0,8.64-8.72h0.09ZM264,134.12a9.11,9.11,0,1,0,9.11-9.11,9.11,9.11,0,0,0-9.11,9.11"/><path class="d" d="M273.11,398.44a8.72,8.72,0,0,0,8.64,8.72,8.72,8.72,0,0,0-8.64,8.72H273a8.72,8.72,0,0,0-8.64-8.72,8.72,8.72,0,0,0,8.64-8.72h0.09ZM264,407.16a9.11,9.11,0,1,0,9.11-9.11,9.11,9.11,0,0,0-9.11,9.11"/><path class="d" d="M382.26,125.41a8.72,8.72,0,0,0,8.64,8.72,8.72,8.72,0,0,0-8.64,8.72h-0.09a8.72,8.72,0,0,0-8.64-8.72,8.72,8.72,0,0,0,8.64-8.72h0.09Zm-9.15,8.72a9.11,9.11,0,1,0,9.11-9.11,9.11,9.11,0,0,0-9.11,9.11"/><path class="d" d="M382.26,398.44a8.72,8.72,0,0,0,8.64,8.72,8.72,8.72,0,0,0-8.64,8.72h-0.09a8.72,8.72,0,0,0-8.64-8.72,8.72,8.72,0,0,0,8.64-8.72h0.09Zm-9.15,8.72a9.11,9.11,0,1,0,9.11-9.11,9.11,9.11,0,0,0-9.11,9.11"/><path class="d" d="M154.32,316.1a8.72,8.72,0,0,0-8.72,8.64,8.72,8.72,0,0,0-8.72-8.64h0V316h0a8.72,8.72,0,0,0,8.72-8.64,8.72,8.72,0,0,0,8.72,8.64h0v0.09h0ZM145.6,307a9.11,9.11,0,1,0,9.11,9.11A9.11,9.11,0,0,0,145.6,307"/><path class="d" d="M327.69,125.41a8.72,8.72,0,0,0,8.64,8.72,8.72,8.72,0,0,0-8.64,8.72H327.6a8.72,8.72,0,0,0-8.64-8.72,8.72,8.72,0,0,0,8.64-8.72h0.09Zm-9.15,8.72a9.11,9.11,0,1,0,9.11-9.11,9.11,9.11,0,0,0-9.11,9.11"/><path class="d" d="M327.69,398.44a8.72,8.72,0,0,0,8.64,8.72,8.72,8.72,0,0,0-8.64,8.72H327.6a8.72,8.72,0,0,0-8.64-8.72,8.72,8.72,0,0,0,8.64-8.72h0.09Zm-9.15,8.72a9.11,9.11,0,1,0,9.11-9.11,9.11,9.11,0,0,0-9.11,9.11"/><path class="d" d="M436.84,125.41a8.72,8.72,0,0,0,8.64,8.72,8.72,8.72,0,0,0-8.64,8.72h-0.09a8.72,8.72,0,0,0-8.64-8.72,8.72,8.72,0,0,0,8.64-8.72h0.09Zm-9.15,8.72a9.11,9.11,0,1,0,9.11-9.11,9.11,9.11,0,0,0-9.11,9.11"/><path class="d" d="M436.84,398.44a8.72,8.72,0,0,0,8.64,8.72,8.72,8.72,0,0,0-8.64,8.72h-0.09a8.72,8.72,0,0,0-8.64-8.72,8.72,8.72,0,0,0,8.64-8.72h0.09Zm-9.15,8.72a9.11,9.11,0,1,0,9.11-9.11,9.11,9.11,0,0,0-9.11,9.11"/><path class="d" d="M473.23,125.41a8.72,8.72,0,0,0,8.64,8.72,8.72,8.72,0,0,0-8.64,8.72h-0.09a8.72,8.72,0,0,0-8.64-8.72,8.72,8.72,0,0,0,8.64-8.72h0.09Zm-9.15,8.72a9.11,9.11,0,1,0,9.11-9.11,9.11,9.11,0,0,0-9.11,9.11"/><path class="d" d="M473.23,398.44a8.72,8.72,0,0,0,8.64,8.72,8.72,8.72,0,0,0-8.64,8.72h-0.09a8.72,8.72,0,0,0-8.64-8.72,8.72,8.72,0,0,0,8.64-8.72h0.09Zm-9.15,8.72a9.11,9.11,0,1,0,9.11-9.11,9.11,9.11,0,0,0-9.11,9.11"/><path class="d" d="M145.65,398.39a8.72,8.72,0,0,0,8.64,8.72,8.71,8.71,0,0,0-8.64,8.72h-0.09a8.71,8.71,0,0,0-8.64-8.72,8.72,8.72,0,0,0,8.64-8.72h0.09Zm-9.15,8.72A9.11,9.11,0,1,0,145.6,398a9.11,9.11,0,0,0-9.11,9.11"/><path class="d" d="M145.65,380.18a8.72,8.72,0,0,0,8.64,8.72,8.72,8.72,0,0,0-8.64,8.72h-0.09a8.72,8.72,0,0,0-8.64-8.72,8.72,8.72,0,0,0,8.64-8.72h0.09Zm-9.15,8.72a9.11,9.11,0,1,0,9.11-9.11,9.11,9.11,0,0,0-9.11,9.11"/><path class="d" d="M145.65,362a8.72,8.72,0,0,0,8.64,8.72,8.72,8.72,0,0,0-8.64,8.72h-0.09a8.72,8.72,0,0,0-8.64-8.72,8.72,8.72,0,0,0,8.64-8.72h0.09Zm-9.15,8.72a9.11,9.11,0,1,0,9.11-9.11,9.11,9.11,0,0,0-9.11,9.11"/><path class="d" d="M145.65,343.77a8.72,8.72,0,0,0,8.64,8.72,8.72,8.72,0,0,0-8.64,8.72h-0.09a8.72,8.72,0,0,0-8.64-8.72,8.72,8.72,0,0,0,8.64-8.72h0.09Zm-9.15,8.72a9.11,9.11,0,1,0,9.11-9.11,9.11,9.11,0,0,0-9.11,9.11"/><path class="d" d="M145.65,325.56a8.72,8.72,0,0,0,8.64,8.72,8.71,8.71,0,0,0-8.64,8.72h-0.09a8.71,8.71,0,0,0-8.64-8.72,8.72,8.72,0,0,0,8.64-8.72h0.09Zm-9.15,8.72a9.11,9.11,0,1,0,9.11-9.11,9.11,9.11,0,0,0-9.11,9.11"/><path class="d" d="M163.86,398.44a8.72,8.72,0,0,0,8.64,8.72,8.72,8.72,0,0,0-8.64,8.72h-0.09a8.72,8.72,0,0,0-8.64-8.72,8.72,8.72,0,0,0,8.64-8.72h0.09Zm-9.15,8.72a9.11,9.11,0,1,0,9.11-9.11,9.11,9.11,0,0,0-9.11,9.11"/><path class="d" d="M182,398.44a8.72,8.72,0,0,0,8.64,8.72,8.72,8.72,0,0,0-8.64,8.72H182a8.72,8.72,0,0,0-8.64-8.72,8.72,8.72,0,0,0,8.64-8.72H182Zm-9.15,8.72a9.11,9.11,0,1,0,9.11-9.11,9.11,9.11,0,0,0-9.11,9.11"/><path class="d" d="M200.22,398.44a8.72,8.72,0,0,0,8.64,8.72,8.72,8.72,0,0,0-8.64,8.72h-0.09a8.72,8.72,0,0,0-8.64-8.72,8.72,8.72,0,0,0,8.64-8.72h0.09Zm-9.15,8.72a9.11,9.11,0,1,0,9.11-9.11,9.11,9.11,0,0,0-9.11,9.11"/><path class="d" d="M218.4,398.44a8.72,8.72,0,0,0,8.64,8.72,8.72,8.72,0,0,0-8.64,8.72h-0.09a8.72,8.72,0,0,0-8.64-8.72,8.72,8.72,0,0,0,8.64-8.72h0.09Zm-9.15,8.72a9.11,9.11,0,1,0,9.11-9.11,9.11,9.11,0,0,0-9.11,9.11"/><path class="d" d="M555.52,407.11a8.72,8.72,0,0,0,8.72-8.64,8.71,8.71,0,0,0,8.72,8.64h0v0.09h0a8.71,8.71,0,0,0-8.72,8.64,8.72,8.72,0,0,0-8.72-8.64h0v-0.09h0Zm8.72,9.15a9.11,9.11,0,1,0-9.11-9.11,9.11,9.11,0,0,0,9.11,9.11"/><path class="d" d="M537.31,407.11a8.72,8.72,0,0,0,8.72-8.64,8.72,8.72,0,0,0,8.72,8.64h0v0.09h0a8.72,8.72,0,0,0-8.72,8.64,8.72,8.72,0,0,0-8.72-8.64h0v-0.09h0Zm8.72,9.15a9.11,9.11,0,1,0-9.11-9.11,9.11,9.11,0,0,0,9.11,9.11"/><path class="d" d="M519.1,407.11a8.72,8.72,0,0,0,8.72-8.64,8.72,8.72,0,0,0,8.72,8.64v0.09h0a8.72,8.72,0,0,0-8.72,8.64,8.72,8.72,0,0,0-8.72-8.64h0v-0.09h0Zm8.72,9.15a9.11,9.11,0,1,0-9.11-9.11,9.11,9.11,0,0,0,9.11,9.11"/><path class="d" d="M500.89,407.11a8.72,8.72,0,0,0,8.72-8.64,8.72,8.72,0,0,0,8.72,8.64h0v0.09h0a8.72,8.72,0,0,0-8.72,8.64,8.72,8.72,0,0,0-8.72-8.64h0v-0.09h0Zm8.72,9.15a9.11,9.11,0,1,0-9.11-9.11,9.11,9.11,0,0,0,9.11,9.11"/><path class="d" d="M482.69,407.11a8.72,8.72,0,0,0,8.72-8.64,8.71,8.71,0,0,0,8.72,8.64h0v0.09h0a8.71,8.71,0,0,0-8.72,8.64,8.72,8.72,0,0,0-8.72-8.64h0v-0.09h0Zm8.72,9.15a9.11,9.11,0,1,0-9.11-9.11,9.11,9.11,0,0,0,9.11,9.11"/><path class="d" d="M555.57,388.9a8.72,8.72,0,0,0,8.72-8.64A8.72,8.72,0,0,0,573,388.9h0V389h0a8.72,8.72,0,0,0-8.72,8.64,8.72,8.72,0,0,0-8.72-8.64h0V388.9h0Zm8.72,9.15a9.11,9.11,0,1,0-9.11-9.11,9.11,9.11,0,0,0,9.11,9.11"/><path class="d" d="M555.57,370.72a8.72,8.72,0,0,0,8.72-8.64,8.72,8.72,0,0,0,8.72,8.64h0v0.09h0a8.72,8.72,0,0,0-8.72,8.64,8.72,8.72,0,0,0-8.72-8.64h0v-0.09h0Zm8.72,9.15a9.11,9.11,0,1,0-9.11-9.11,9.11,9.11,0,0,0,9.11,9.11"/><path class="d" d="M555.57,352.54a8.72,8.72,0,0,0,8.72-8.64,8.72,8.72,0,0,0,8.72,8.64h0v0.09h0a8.72,8.72,0,0,0-8.72,8.64,8.72,8.72,0,0,0-8.72-8.64h0v-0.09h0Zm8.72,9.15a9.11,9.11,0,1,0-9.11-9.11,9.11,9.11,0,0,0,9.11,9.11"/><path class="d" d="M555.57,334.36a8.72,8.72,0,0,0,8.72-8.64,8.72,8.72,0,0,0,8.72,8.64h0v0.09h0a8.72,8.72,0,0,0-8.72,8.64,8.72,8.72,0,0,0-8.72-8.64h0v-0.09h0Zm8.72,9.15a9.11,9.11,0,1,0-9.11-9.11,9.11,9.11,0,0,0,9.11,9.11"/><path class="d" d="M555.52,316.14a8.72,8.72,0,0,0,8.72-8.64,8.71,8.71,0,0,0,8.72,8.64h0v0.09h0a8.71,8.71,0,0,0-8.72,8.64,8.72,8.72,0,0,0-8.72-8.64h0v-0.09h0Zm8.72,9.15a9.11,9.11,0,1,0-9.11-9.11,9.11,9.11,0,0,0,9.11,9.11"/><path class="d" d="M555.57,297.93a8.72,8.72,0,0,0,8.72-8.64,8.72,8.72,0,0,0,8.72,8.64h0V298h0a8.72,8.72,0,0,0-8.72,8.64,8.72,8.72,0,0,0-8.72-8.64h0v-0.09h0Zm8.72,9.15a9.11,9.11,0,1,0-9.11-9.11,9.11,9.11,0,0,0,9.11,9.11"/><path class="d" d="M555.57,279.75a8.72,8.72,0,0,0,8.72-8.64,8.72,8.72,0,0,0,8.72,8.64h0v0.09h0a8.72,8.72,0,0,0-8.72,8.64,8.72,8.72,0,0,0-8.72-8.64h0v-0.09h0Zm8.72,9.15a9.11,9.11,0,1,0-9.11-9.11,9.11,9.11,0,0,0,9.11,9.11"/><path class="d" d="M555.57,225.18a8.72,8.72,0,0,0,8.72-8.64,8.72,8.72,0,0,0,8.72,8.64h0v0.09h0a8.72,8.72,0,0,0-8.72,8.64,8.72,8.72,0,0,0-8.72-8.64h0v-0.09h0Zm8.72,9.15a9.11,9.11,0,1,0-9.11-9.11,9.11,9.11,0,0,0,9.11,9.11"/><path class="d" d="M555.57,261.57a8.72,8.72,0,0,0,8.72-8.64,8.72,8.72,0,0,0,8.72,8.64h0v0.09h0a8.72,8.72,0,0,0-8.72,8.64,8.72,8.72,0,0,0-8.72-8.64h0v-0.09h0Zm8.72,9.15a9.11,9.11,0,1,0-9.11-9.11,9.11,9.11,0,0,0,9.11,9.11"/><path class="d" d="M555.57,243.39a8.72,8.72,0,0,0,8.72-8.64,8.72,8.72,0,0,0,8.72,8.64h0v0.09h0a8.72,8.72,0,0,0-8.72,8.64,8.72,8.72,0,0,0-8.72-8.64h0v-0.09h0Zm8.72,9.15a9.11,9.11,0,1,0-9.11-9.11,9.11,9.11,0,0,0,9.11,9.11"/><path class="d" d="M564.24,142.89a8.72,8.72,0,0,0-8.64-8.72,8.71,8.71,0,0,0,8.64-8.72h0.09a8.71,8.71,0,0,0,8.64,8.72,8.72,8.72,0,0,0-8.64,8.72h-0.09Zm9.15-8.72a9.11,9.11,0,1,0-9.11,9.11,9.11,9.11,0,0,0,9.11-9.11"/><path class="d" d="M564.24,161.1a8.72,8.72,0,0,0-8.64-8.72,8.72,8.72,0,0,0,8.64-8.72h0.09a8.72,8.72,0,0,0,8.64,8.72,8.72,8.72,0,0,0-8.64,8.72h-0.09Zm9.15-8.72a9.11,9.11,0,1,0-9.11,9.11,9.11,9.11,0,0,0,9.11-9.11"/><path class="d" d="M564.24,179.3a8.72,8.72,0,0,0-8.64-8.72,8.72,8.72,0,0,0,8.64-8.72h0.09a8.72,8.72,0,0,0,8.64,8.72,8.72,8.72,0,0,0-8.64,8.72h-0.09Zm9.15-8.72a9.11,9.11,0,1,0-9.11,9.11,9.11,9.11,0,0,0,9.11-9.11"/><path class="d" d="M564.24,197.51a8.72,8.72,0,0,0-8.64-8.72,8.72,8.72,0,0,0,8.64-8.72h0.09A8.72,8.72,0,0,0,573,188.8a8.72,8.72,0,0,0-8.64,8.72h-0.09Zm9.15-8.72a9.11,9.11,0,1,0-9.11,9.11,9.11,9.11,0,0,0,9.11-9.11"/><path class="d" d="M564.24,215.72a8.72,8.72,0,0,0-8.64-8.72,8.71,8.71,0,0,0,8.64-8.72h0.09A8.71,8.71,0,0,0,573,207a8.72,8.72,0,0,0-8.64,8.72h-0.09Zm9.15-8.72a9.11,9.11,0,1,0-9.11,9.11,9.11,9.11,0,0,0,9.11-9.11"/><path class="d" d="M546,142.84a8.72,8.72,0,0,0-8.64-8.72,8.72,8.72,0,0,0,8.64-8.72h0.09a8.72,8.72,0,0,0,8.64,8.72,8.72,8.72,0,0,0-8.64,8.72H546Zm9.15-8.72a9.11,9.11,0,1,0-9.11,9.11,9.11,9.11,0,0,0,9.11-9.11"/><path class="d" d="M527.85,142.84a8.72,8.72,0,0,0-8.64-8.72,8.72,8.72,0,0,0,8.64-8.72h0.09a8.72,8.72,0,0,0,8.64,8.72,8.72,8.72,0,0,0-8.64,8.72h-0.09Zm9.15-8.72a9.11,9.11,0,1,0-9.11,9.11,9.11,9.11,0,0,0,9.11-9.11"/><path class="d" d="M509.67,142.84a8.72,8.72,0,0,0-8.64-8.72,8.72,8.72,0,0,0,8.64-8.72h0.09a8.72,8.72,0,0,0,8.64,8.72,8.72,8.72,0,0,0-8.64,8.72h-0.09Zm9.15-8.72a9.11,9.11,0,1,0-9.11,9.11,9.11,9.11,0,0,0,9.11-9.11"/><path class="d" d="M491.49,142.84a8.72,8.72,0,0,0-8.64-8.72,8.72,8.72,0,0,0,8.64-8.72h0.09a8.72,8.72,0,0,0,8.64,8.72,8.72,8.72,0,0,0-8.64,8.72h-0.09Zm9.15-8.72a9.11,9.11,0,1,0-9.11,9.11,9.11,9.11,0,0,0,9.11-9.11"/></g></svg>