<svg version="1.1" xmlns="http://www.w3.org/2000/svg" xmlns:xlink="http://www.w3.org/1999/xlink" x="0px" y="0px"
   viewBox="-69 16 40 40" style="enable-background:new -69 16 40 40;" xml:space="preserve">
<path d="M-49,17c10.5,0,19,8.5,19,19s-8.5,19-19,19s-19-8.5-19-19S-59.5,17-49,17 M-49,16c-11,0-20,9-20,20s9,20,20,20s20-9,20-20
  S-38,16-49,16L-49,16z"/>
<path d="M-42.8,28.2h-13c-1.1,0-2,0.9-2,2v13.1c0,1.1,0.9,2,2,2h13.1c1.1,0,2-0.9,2-2V30.2C-40.8,29.1-41.7,28.2-42.8,28.2z
   M-49.3,33.4c1.8,0,3.3,1.5,3.3,3.3s-1.5,3.3-3.3,3.3s-3.3-1.5-3.3-3.3S-51.1,33.4-49.3,33.4z M-43.5,43.3h-11.7
  c-0.4,0-0.7-0.3-0.7-0.7v-7.2h1.5c-0.1,0.4-0.2,0.9-0.2,1.3c0,2.9,2.3,5.2,5.2,5.2c2.9,0,5.2-2.3,5.2-5.2c0-0.5-0.1-0.9-0.2-1.3h1.5
  v7.2h0.1C-42.8,43-43.1,43.3-43.5,43.3z M-42.8,32.8c0,0.4-0.3,0.7-0.7,0.7h-2c-0.4,0-0.7-0.3-0.7-0.7v-2c0-0.4,0.3-0.7,0.7-0.7h2
  c0.4,0,0.7,0.3,0.7,0.7V32.8z"/>
</svg>
