<svg version="1.1" xmlns="http://www.w3.org/2000/svg" xmlns:xlink="http://www.w3.org/1999/xlink" x="0px" y="0px"
 viewBox="0 0 180 50" style="enable-background:new 0 0 180 50;" xml:space="preserve">
  <path d="M33.9,45v3.2h-1.4v-9h3.6c1.9,0,2.9,1.5,2.9,2.9c0,1.7-1.3,2.9-3,2.9H33.9z M33.9,43.8h2c1,0,1.7-0.5,1.7-1.6
c0-1-0.5-1.6-1.7-1.6h-2V43.8z M51.8,48.2L51.8,48.2l-1.6,0.1l-2.5-3.6h-1.5v3.6h-1.4v-9h3.5c2,0,2.9,1.4,2.9,2.8
c0,1.4-0.9,2.4-2,2.6L51.8,48.2z M46.3,43.5h2.1c0.9,0,1.4-0.5,1.4-1.5c0-0.9-0.7-1.5-1.6-1.5h-1.8V43.5z M56.8,43.8
c0-2.7,2.1-4.8,4.8-4.8s4.8,2.1,4.8,4.8c0,2.7-2.1,4.8-4.8,4.8S56.8,46.5,56.8,43.8z M64.9,44.1c0.2-2-1.2-3.7-3.1-3.8
c-1.8-0.1-3.3,1.3-3.5,3.1c-0.2,2,1.2,3.7,3.1,3.8C63.2,47.3,64.7,45.9,64.9,44.1z M73.7,45v3.2h-1.4v-9h3.6c1.9,0,2.9,1.5,2.9,2.9
c0,1.7-1.3,2.9-3,2.9H73.7z M73.7,43.8h2c1,0,1.7-0.5,1.7-1.6c0-1-0.5-1.6-1.7-1.6h-2V43.8z M90.8,39.3v1.3h-4.7v2.3h4.4v1.3h-4.4
V47h4.8v1.3h-6.2v-9H90.8z M103.9,48.2L103.9,48.2l-1.6,0.1l-2.5-3.6h-1.5v3.6h-1.4v-9h3.5c2,0,2.9,1.4,2.9,2.8c0,1.4-0.9,2.4-2,2.6
L103.9,48.2z M98.4,43.5h2.1c0.9,0,1.4-0.5,1.4-1.5c0-0.9-0.7-1.5-1.6-1.5h-1.8V43.5z M111.6,48.3v-7.7h-3v-1.3h7.5v1.3h-3v7.7
H111.6z M121.7,48.3v-9h1.4v9H121.7z M135.9,39.3v1.3h-4.7v2.3h4.4v1.3h-4.4V47h4.8v1.3h-6.2v-9H135.9z M144.2,42.7l1.2,0.4
c1,0.4,2.1,1,2.1,2.6c0,1.7-1.4,2.8-3.3,2.8c-1,0-2.1-0.3-2.6-0.7v-1.4h0.1c0.4,0.4,1.5,0.8,2.5,0.8c1.2,0,1.8-0.6,1.8-1.4
c0-0.8-0.6-1.2-1.4-1.5l-1-0.4c-1.1-0.4-2-1.1-2-2.5c0-1.3,1.2-2.5,2.9-2.5c0.9,0,1.9,0.3,2.3,0.6v1.4h-0.1
c-0.4-0.4-1.2-0.8-2.1-0.8c-1,0-1.6,0.5-1.6,1.2C143.1,42.2,143.5,42.4,144.2,42.7z"/>
  <path d="M48,24.3h5.1L41.4,1.5L29.6,24.3h5l1.8-3.5h9.8L48,24.3z M180,24.6V1.8h-4.5V15L159.1,1.5v22.8h4.5V11.1
L180,24.6z M99.2,2.9c-1.7-0.8-3.7-1.4-6.2-1.4c-5.1,0-8.3,2.5-8.3,6.5c0,3.1,1.7,5.2,6,6.6l2.4,0.8c2.1,0.7,3.1,1.6,3.1,2.9
c0,1.5-1.3,2.5-4.1,2.5c-2.4,0-4.8-0.8-7.1-2.4v4.6c2,1,4.5,1.7,7.4,1.7c5.6,0,8.5-2.8,8.5-6.8c0-3.3-1.9-5.2-6.2-6.6l-2.3-0.8
c-2.1-0.7-3-1.5-3-2.7c0-1.4,1.4-2.4,3.9-2.4c1.8,0,3.3,0.5,6,2V2.9z M11.6,19.4l7.1-7.2v12.1h4.5V1.5L11.6,13.1L0,1.5v22.8h4.5
V12.2L11.6,19.4z M44.3,16.7h-5.9l3-6L44.3,16.7z M68.5,5.8c2,0,3.6,1.3,3.6,3.3s-1.5,3.3-3.6,3.3h-4.6V5.8H68.5z M124.4,5.8V1.8
h-18.8v4.1h7.1v18.5h4.5V5.8H124.4z M141.1,5.5c4.3,0,7.5,3.3,7.5,7.5c0,4.3-3.3,7.5-7.5,7.5c-4.3,0-7.5-3.3-7.5-7.5
C133.6,8.8,136.8,5.5,141.1,5.5 M81.4,27.6v-1.4H81c-3,0-6.6-8.8-10.3-10.4c3.6-0.8,6.1-3.3,6.1-6.9c0-4.2-3.6-7.1-8.3-7.1h-9.1
v22.5h4.5v-7.8h0.3c5.6,0,7.3,11.1,14.3,11.1H81.4z M141.1,1.5c-6.9,0-12.2,5-12.2,11.6c0,6.6,5.3,11.6,12.2,11.6
c6.9,0,12.2-5,12.2-11.6C153.3,6.5,148,1.5,141.1,1.5"/>
</svg>
