<svg version="1.1" xmlns="http://www.w3.org/2000/svg" xmlns:xlink="http://www.w3.org/1999/xlink" x="0px" y="0px"
   viewBox="-69 16 40 40" style="enable-background:new -69 16 40 40;" xml:space="preserve">
<path d="M-38,30.4c-0.3,0.2-1.3,0.6-2.3,0.7c0.6-0.4,1.5-1.5,1.7-2.4c-0.6,0.4-1.9,1-2.6,1l0,0c-0.8-0.8-1.8-1.4-3-1.4
  c-2.3,0-4.1,2-4.1,4.4c0,0.3,0,0.7,0.1,1l0,0c-3.1-0.1-6.7-1.8-8.7-4.6c-1.2,2.3-0.2,4.9,1.3,5.9c-0.5,0-1.4-0.1-1.8-0.5
  c0,1.5,0.7,3.6,3.2,4.3c-0.5,0.3-1.3,0.2-1.7,0.1c0.1,1.3,1.8,3,3.7,3c-0.7,0.8-2.9,2.3-5.7,1.8c1.9,1.2,4.1,2,6.5,2
  c6.7,0,11.8-5.8,11.5-13l0,0c0,0,0,0,0-0.1c0,0,0,0,0-0.1C-39.5,32.2-38.7,31.4-38,30.4"/>
<path d="M-49,17c10.5,0,19,8.5,19,19s-8.5,19-19,19s-19-8.5-19-19S-59.5,17-49,17 M-49,16c-11,0-20,9-20,20s9,20,20,20s20-9,20-20
  S-38,16-49,16L-49,16z"/>
</svg>
