<?xml version="1.0" encoding="utf-8"?>
<!-- Generator: Adobe Illustrator 19.1.0, SVG Export Plug-In . SVG Version: 6.00 Build 0)  -->
<svg version="1.1"
	 id="svg2" xmlns:dc="http://purl.org/dc/elements/1.1/" xmlns:cc="http://creativecommons.org/ns#" xmlns:rdf="http://www.w3.org/1999/02/22-rdf-syntax-ns#" xmlns:svg="http://www.w3.org/2000/svg"
	 xmlns="http://www.w3.org/2000/svg" xmlns:xlink="http://www.w3.org/1999/xlink" x="0px" y="0px" viewBox="165 -43.6 1000 328.6"
	 style="enable-background:new 165 -43.6 1000 328.6;" xml:space="preserve">
<style type="text/css">
	.st0{fill:#FFFFFF;}
</style>
<path id="path2998" class="st0" d="M411.1,72.6H294.5v34.6h82.7c-4.1,48.5-44.4,69.2-82.5,69.2c-48.7,0-91.3-38.3-91.3-92.1
	c0-52.4,40.5-92.7,91.4-92.7c39.2,0,62.3,25,62.3,25l24.2-25.1c0,0-31.1-34.6-87.8-34.6c-72.2,0-128,60.9-128,126.8
	c0,64.5,52.5,127.4,129.9,127.4c68,0,117.8-46.6,117.8-115.5C413.2,81,411.1,72.6,411.1,72.6L411.1,72.6z"/>
<path id="path3000" class="st0" d="M506.6,47.6c-47.8,0-82.1,37.4-82.1,81c0,44.3,33.2,82.3,82.7,82.3c44.7,0,81.4-34.2,81.4-81.4
	C588.6,75.4,545.9,47.6,506.6,47.6L506.6,47.6z M507.1,79.7c23.5,0,45.8,19,45.8,49.7c0,30-22.2,49.6-45.9,49.6
	c-26.1,0-46.6-20.9-46.6-49.8C460.3,100.8,480.6,79.7,507.1,79.7L507.1,79.7z"/>
<path id="path3005" class="st0" d="M685.2,47.6c-47.8,0-82.1,37.4-82.1,81c0,44.3,33.2,82.3,82.7,82.3c44.7,0,81.4-34.2,81.4-81.4
	C767.1,75.4,724.5,47.6,685.2,47.6L685.2,47.6z M685.7,79.7c23.5,0,45.8,19,45.8,49.7c0,30-22.2,49.6-45.9,49.6
	c-26.1,0-46.6-20.9-46.6-49.8C638.9,100.8,659.2,79.7,685.7,79.7L685.7,79.7z"/>
<path id="path3007" class="st0" d="M860.3,47.7c-43.9,0-78.4,38.5-78.4,81.6c0,49.2,40,81.8,77.7,81.8c23.3,0,35.7-9.2,44.8-19.8
	v16.1c0,28.2-17.1,45.1-42.9,45.1c-24.9,0-37.5-18.6-41.8-29.1l-31.4,13.1c11.1,23.5,33.6,48.1,73.5,48.1
	c43.7,0,76.9-27.5,76.9-85.2V52.6h-34.2v13.8C893.9,55.1,879.5,47.7,860.3,47.7L860.3,47.7z M863.5,79.7c21.5,0,43.6,18.4,43.6,49.8
	c0,31.9-22.1,49.5-44.1,49.5c-23.4,0-45.2-19-45.2-49.2C817.9,98.4,840.5,79.7,863.5,79.7L863.5,79.7z"/>
<path id="path3011" class="st0" d="M1090.9,47.5c-41.4,0-76.2,33-76.2,81.6c0,51.4,38.8,82,80.2,82c34.6,0,55.8-18.9,68.4-35.8
	l-28.2-18.8c-7.3,11.4-19.6,22.5-40,22.5c-23,0-33.5-12.6-40.1-24.8l109.5-45.4l-5.7-13.3C1148.2,69.2,1123.6,47.5,1090.9,47.5
	L1090.9,47.5z M1092.3,78.9c14.9,0,25.7,7.9,30.2,17.4l-73.1,30.6C1046.2,103.2,1068.7,78.9,1092.3,78.9L1092.3,78.9z"/>
<path id="path3015" class="st0" d="M962.5,206.1h36V-34.6h-36V206.1z"/>
</svg>
