<?xml version="1.0" encoding="utf-8"?>
<!-- Generator: Adobe Illustrator 19.1.0, SVG Export Plug-In . SVG Version: 6.00 Build 0)  -->
<svg version="1.1" id="Layer_1" xmlns="http://www.w3.org/2000/svg" xmlns:xlink="http://www.w3.org/1999/xlink" x="0px" y="0px"
   viewBox="0 0 40 40" style="enable-background:new 0 0 40 40;" xml:space="preserve" width="40" height="40">
<style type="text/css">
  .st0{fill:#ee3938;}
</style>
<path class="st0" d="M20,0C9,0,0,9,0,20c0,11,9,20,20,20c11,0,20-9,20-20C40,9,31,0,20,0z M33.8,34L33,33.2c-3.4,3.3-8,5.4-13,5.4
  C9.8,38.6,1.4,30.2,1.4,20c0-5.1,2-9.7,5.4-13L6,6.2c3.6-3.6,8.5-5.9,14-5.9c10.9,0,19.7,8.8,19.7,19.7C39.7,25.5,37.4,30.4,33.8,34
  z M20,1.4c-5.2,0-9.8,2.1-13.2,5.5l0.9,0.9c-3.1,3.1-5,7.4-5,12.1c0,9.5,7.7,17.3,17.3,17.3c4.7,0,9-1.9,12.1-5l0.9,0.9
  c3.4-3.4,5.5-8,5.5-13.2C38.6,9.8,30.2,1.4,20,1.4z M20,37c-9.3,0-17-7.6-17-17c0-9.3,7.6-17,17-17s17,7.6,17,17
  C37,29.3,29.3,37,20,37z M20,20.2l-7.8-7.8v15.3h3v-8.1l4.8,4.9l4.8-4.9v8.1h3V12.3L20,20.2z M20,23.9L20,23.9l0-1.7l-6.3-6.3
  l1.2,2.8v8.6l-1.2-1.2V15.9l-1.2-2.8v-0.1l7.5,7.5v1.6l6.3-6.3l1.2-2.9l0,0v14.2l-1.2-1.2V16l-1.2,2.8L20,23.9z"/>
</svg>
